<?xml version="1.0" encoding="iso-8859-1"?>
<!-- Generator: Adobe Illustrator 19.0.0, SVG Export Plug-In . SVG Version: 6.00 Build 0)  -->
<svg version="1.1" id="Capa_1" xmlns="http://www.w3.org/2000/svg" xmlns:xlink="http://www.w3.org/1999/xlink" x="0px" y="0px"
	 viewBox="0 0 39.795 39.795" style="enable-background:new 0 0 39.795 39.795;" xml:space="preserve">
<g>
	<path d="M1,39.795c-0.264,0-0.519-0.104-0.707-0.293c-0.209-0.208-0.315-0.499-0.289-0.793l2.475-28.638
		c0.033-0.388,0.288-0.72,0.654-0.853C3.496,9.085,3.908,9.175,4.182,9.45l6,6.001L30.969,0.604
		c1.295-0.928,3.195-0.769,4.324,0.359l3.539,3.539c1.128,1.127,1.286,3.027,0.359,4.325L24.344,29.612l6.001,6
		c0.275,0.275,0.366,0.684,0.232,1.049c-0.133,0.366-0.466,0.621-0.854,0.654L1.086,39.791C1.057,39.793,1.029,39.795,1,39.795z
		 M4.287,12.382L2.099,37.696l25.314-2.188l-5.082-5.081c-0.346-0.346-0.391-0.891-0.107-1.288L37.564,7.664
		c0.356-0.498,0.288-1.314-0.146-1.748l-3.539-3.539c-0.433-0.433-1.25-0.502-1.748-0.146L10.656,17.57
		c-0.398,0.284-0.942,0.239-1.288-0.107L4.287,12.382z"/>
</g>
<g>
</g>
<g>
</g>
<g>
</g>
<g>
</g>
<g>
</g>
<g>
</g>
<g>
</g>
<g>
</g>
<g>
</g>
<g>
</g>
<g>
</g>
<g>
</g>
<g>
</g>
<g>
</g>
<g>
</g>
</svg>
