<?xml version="1.0" encoding="iso-8859-1"?>
<!-- Generator: Adobe Illustrator 16.0.0, SVG Export Plug-In . SVG Version: 6.00 Build 0)  -->
<!DOCTYPE svg PUBLIC "-//W3C//DTD SVG 1.1//EN" "http://www.w3.org/Graphics/SVG/1.1/DTD/svg11.dtd">
<svg version="1.1" id="Capa_1" xmlns="http://www.w3.org/2000/svg" xmlns:xlink="http://www.w3.org/1999/xlink" x="0px" y="0px"
	 width="932.262px" height="932.263px" viewBox="0 0 932.262 932.263" style="enable-background:new 0 0 932.262 932.263;"
	 xml:space="preserve">
<g>
	<circle cx="466.131" cy="868.162" r="64.101"/>
	<path d="M634.623,548.276c-20.624-20.381-53.866-20.182-74.244,0.444l-41.747,42.25V52.5c0-28.995-23.505-52.5-52.5-52.5
		c-28.995,0-52.5,23.505-52.5,52.5v537.262l-42.192-41.688c-20.624-20.38-53.865-20.182-74.243,0.444
		c-20.381,20.625-20.181,53.865,0.444,74.244l133.271,131.684c10.23,10.109,23.565,15.154,36.896,15.154
		c13.542,0,27.079-5.207,37.348-15.601L635.067,622.52C655.448,601.896,655.248,568.655,634.623,548.276z"/>
</g>
<g>
</g>
<g>
</g>
<g>
</g>
<g>
</g>
<g>
</g>
<g>
</g>
<g>
</g>
<g>
</g>
<g>
</g>
<g>
</g>
<g>
</g>
<g>
</g>
<g>
</g>
<g>
</g>
<g>
</g>
</svg>
