<?xml version="1.0" encoding="iso-8859-1"?>
<!-- Generator: Adobe Illustrator 19.0.0, SVG Export Plug-In . SVG Version: 6.00 Build 0)  -->
<svg version="1.1" id="Capa_1" xmlns="http://www.w3.org/2000/svg" xmlns:xlink="http://www.w3.org/1999/xlink" x="0px" y="0px"
	 viewBox="0 0 39.794 39.794" style="enable-background:new 0 0 39.794 39.794;" xml:space="preserve">
<g>
	<path d="M6.893,39.794c-0.879,0-1.758-0.327-2.392-0.962l-3.539-3.539c-1.128-1.128-1.286-3.027-0.359-4.325l14.847-20.786
		l-6-6.001C9.174,3.907,9.083,3.497,9.217,3.132C9.35,2.766,9.682,2.512,10.07,2.478l28.638-2.475
		c0.299-0.024,0.584,0.081,0.793,0.289c0.209,0.208,0.314,0.499,0.289,0.793l-2.475,28.638c-0.033,0.388-0.288,0.72-0.654,0.854
		c-0.365,0.133-0.774,0.042-1.049-0.232l-6.001-6L8.826,39.191C8.259,39.596,7.576,39.794,6.893,39.794z M12.382,4.286l5.081,5.081
		c0.346,0.346,0.391,0.891,0.107,1.288L2.231,32.13c-0.356,0.498-0.288,1.315,0.145,1.749l3.539,3.539
		c0.434,0.433,1.251,0.5,1.748,0.146l21.475-15.339c0.398-0.283,0.943-0.239,1.288,0.107l5.081,5.081l2.188-25.313L12.382,4.286z"/>
</g>
<g>
</g>
<g>
</g>
<g>
</g>
<g>
</g>
<g>
</g>
<g>
</g>
<g>
</g>
<g>
</g>
<g>
</g>
<g>
</g>
<g>
</g>
<g>
</g>
<g>
</g>
<g>
</g>
<g>
</g>
</svg>
