<?xml version="1.0" encoding="utf-8"?>
<!-- Generator: Adobe Illustrator 14.0.0, SVG Export Plug-In . SVG Version: 6.00 Build 43363)  -->
<!DOCTYPE svg PUBLIC "-//W3C//DTD SVG 1.1//EN" "http://www.w3.org/Graphics/SVG/1.1/DTD/svg11.dtd">
<svg version="1.1" id="Layer_1" xmlns="http://www.w3.org/2000/svg" xmlns:xlink="http://www.w3.org/1999/xlink" x="0px" y="0px"
	 width="693.308px" height="741.5px" viewBox="0 0 693.308 741.5" enable-background="new 0 0 693.308 741.5" xml:space="preserve">
<g>
	<path fill="#202020" d="M676.5,461.7c-8.1,6.4-16.1,12.9-24.1,19.6c-7.9,6.6-12.9,10.4-15.1,11.3c-0.5,0.3-2.3,2-5.3,4.8
		c-3,2.9-5.9,5.1-8.9,6.7c-2.8,1.6-4.3,0.8-4.6-2.4c0-0.8-0.6-7-1.7-18.9c-1.2-11.9-2.5-25.4-4-40.9c-1.3-12.7-2.4-24.2-3.3-34.5
		c-1-10.2-1.7-17-2.3-20.1c-0.1-1-0.7-7.1-1.7-18.2c-1.1-11.2-2.3-23.6-3.6-37.2c-1.4-13.7-2.5-24.6-3.4-32.8
		c-1-8.2-2-16.5-2.9-24.7c-1.3-11.9-2.5-23.8-3.5-35.8c-0.8-8.2-1.2-15.1-1.1-20.7c0.8-6.7,2.2-11,4.1-13c1.5-1.4,3.5,0,6.3,3.9
		c2.6,3.9,5.1,8.6,7.4,13.9c2.3,5.3,3.5,9.5,3.7,12.4c0.9,0.4,2,3.3,3.5,8.6c1.4,5.4,2.6,10.7,3.8,16c1.1,5.4,1.7,8.3,1.7,8.7
		c0,1.7,0.2,3.7,0.5,6c0.2,1.7,0.5,3.7,1,6c1,5,2.1,10.2,3.5,15.5c1.6,5.7,3.7,10.9,6.3,15.6c2.5,4.8,4.2,6.9,5.3,6.5
		c0.1-0.2,0.5-1.1,0.9-2.5c0.5-1.4,0-2.8-1.2-3.9c-0.8-0.7-1.4-2.6-2-5.8c-0.6-3.2-1.2-6.9-1.8-11c-0.5-6.7-0.9-13.4-1.5-20.4
		c-0.3-4.5-0.6-9-1-13.6c-1.7-10.2-3-19.1-4.1-26.5c-1.2-7.5-1.8-11.7-1.9-12.4c-0.7-1.9-2.7-6.4-6-13.3s-6.4-13.6-9.5-20
		s-4.8-9.9-5-10.3c0-8,0.1-13.6,0.4-16.7c0.2-3,0.1-4.6-0.3-4.6c-1.2,0.1-3.2,4.3-6,12.5c-2.8,8.2-6,18-9.5,29.4
		c-4.1,13.1-7.7,25.2-11,36.2c-3.2,11-5,17.5-5.2,19.7c-0.2,0.3-0.5,1.7-1.2,4.1c-0.7,2.4-1.2,3.7-1.4,4.3c-0.8,0.9-1.7,1.7-2.7,2.2
		s-2.1,0.9-3.1,1.1c-3-1.4-6-3.7-9.2-6.6c-6.3-4-10.4-7-12.5-9c-1.8-2-4.7-4-8.6-6.2c-3.8-2.2-6.1-4.9-6.6-8.1
		c-0.3-0.6-1.7-2.9-4.4-6.8c-2.6-4-4.7-6.3-6.5-6.9c-1.1,0-1.5,0.7-1.1,2.2c0.8,1.2,1.7,2.3,2.8,3.4c2.2,2.3,4.1,5.9,5.7,10.6
		c1.8,4.8,2.7,10,2.9,15.5c0,5.5-0.9,12.1-2.9,19.8c-0.2,0.7-0.4,1.5-0.6,2.2c-2.4,8.7-5,15.9-7.7,21.7c-4,7.9-9.8,16.6-17.4,26
		c-6.9,8.8-13.4,15.6-19.5,20.8c-0.5,0.4-1,0.8-1.5,1.2c-6.4,5.3-10,5.5-10.6,0.8c-0.4-0.7-0.7-1.5-0.7-2.6c0.8-3.1,2.3-6.4,4.6-9.9
		c2.4-3.6,3.9-5.7,4.7-6.3c1-1,2.2-2.6,3.5-4.8c1.1-1.9,2.2-4.4,3.5-7.2c2.6-6.2,4.5-13.6,5.7-21.9c0.8-7.5,1-14.1,0.7-20
		c-0.1-1-0.1-1.9-0.2-2.8c-0.5-6.6-0.2-9.8,0.8-9.7c2.1,1.4,3.9,2.9,5.3,4.5c2.2,1.5,3.5,2,4.2,1.5c0.8-1.5-0.4-4.5-3.6-9.2
		c-2.4-2.8-6.7-7.3-12.8-13.2c-4.1-3.1-7.9-7.1-11.4-12.1c-8.5-15-17.1-29.8-25.7-44.1c-6.6-10.2-11.7-19.3-15.3-27.2
		c-0.6-1.1-1-2-1.5-2.5c-0.4-0.5-0.7-1.3-0.9-2.6c-0.4-5.9,0.2-12.1,1.9-18.7c1.6-6.7,3.1-13,4.7-19c1.6-7.9,2.8-15.9,3.6-24
		c0.8-8,1.9-15.4,3.2-22.3c0.3-0.5,1.4,0.4,3.3,2.6c2,2.3,4.4,5,7.3,8.1c2.4,2.4,5.4,5.3,8.7,8.6c3.5,3.3,6,6.8,7.5,10.3
		c2.6,8.9,3.6,16.8,3.1,23.5c0.7,6.4,1.3,10.2,1.9,11.3c1.5,6.6,6.3,13.5,14.4,20.7c4,3.5,8.7,7.9,14.1,13
		c5.5,5.2,10.4,11.2,15,18.1c4.3,7.3,7.9,14.1,10.6,20.4c2.7,6.4,5.2,9.8,7.3,10.1c2.1-0.7,3-4.6,2.8-11.7c-0.5-3.9-1.1-8-1.8-12.3
		c-0.6-1.4-2-5.3-4.4-11.7c-2.4-6.3-3.2-10.1-2.2-11.4c1.9-0.5,4.1,0,6.4,1.4c2.4,1.4,4.9,2.8,7.5,4.1c3,1.4,5.9,2.3,8.4,2.8
		c2.5,0.4,4,0.4,4.6-0.2c0.4-0.8-1.3-3.3-5-7.6c-3.7-4.2-8.8-9-15.1-14c-7-4.6-13.6-9.4-20-14.2c-7.6-6.5-12.1-12.5-13.4-18.1
		c-0.2-1.3-0.4-4.2-0.7-8.6c-0.3-4.5-0.8-8.7-1.3-12.8c-0.5-4.1-1-6.4-1.7-6.7c-0.3-2.6-1.1-4.8-2.7-6.8c-1.5-1.9-2.3-3.4-2.6-4.5
		c-1.2-0.8-2.2-1.5-3-2.3c-2.5-0.2-6.2-3.1-11-8.6c-1.9-2.5-3.2-5-3.8-7.5c-0.7-2.5-2-5.4-3.9-8.7c-1.5-2.1-3.5-3.7-5.6-4.8
		c-2.2-1-3.8-2.9-4.9-5.3c-1-4.4-2.6-8.7-4.6-12.9c-2.6-3.5-4.8-6.9-6.6-10.4c-1.1-3.3-1.4-6.4-1.1-9.2c0.2-2.8,0.8-4.9,1.6-6.1
		c3.2-4.5,4.7-7.7,4.7-9.7c0.5-1.3,0-1.9-1.3-1.9c-1.4,0-4.8,0.1-10.2,0.5c0,0,0.4,0.9,1.3,2.5c0.9,1.5,1.5,3.5,1.7,5.9
		c-0.1,2.9-0.7,5.9-1.8,9c-1,3-1.7,5.5-1.8,7.4c-0.7,10.3-2.4,21.1-5.1,32.2c-2.6,13-5.3,26-8.1,38.9c-2.7,12.8-4.3,25-5,36.5
		c0,0.6,0,2.2-0.3,4.7c-0.2,2.5-0.7,5-1.6,7.4c-0.4,2-1.3,3.5-2.7,4.5c-1.3,0.5-2.4,0.5-3.6,0c-0.6-0.5-3.5-2.4-9-5.8
		c-0.8-0.6-1.8-1.2-2.7-1.8c-4.6-3-9.4-6.2-14.5-9.5c-3.9-2.7-7.5-4.9-10.4-6.7c-1.1-0.7-1.9-1.2-2.6-1.7c-1.3-0.9-2.1-1.5-2.2-1.7
		c-0.6-1.1-3.4-3.3-8.5-6.5c-5.1-3.3-10.9-7.2-17.2-11.8c-7.2-5.7-12.8-11.3-16.9-16.5c-2-2.5-4.9-5.9-8.8-10.3
		c-3.9-4.5-7.7-8.3-11.3-11.5c-3.7-3.2-6-4-7.2-2.4c-0.7,1.6,0,3.6,2.3,5.8c2.3,2.3,5,5,8.2,8.1c6.5,6.3,12.3,13.2,17.4,20.9
		c1.3,2.6,2.3,5.2,2.9,7.4c1,2,2,5.8,3,11.4c0.4,2.3,0.7,4.6,0.8,7.1c0.2,3.6,0.2,7.5-0.2,11.5c-1.7,12.9-6.6,22.2-14.9,28
		c-8.2,5.8-18.2,8.9-29.7,9.5c-4.6,0.3-9.2,0.6-13.6,1.1c-4.6,0.4-7.2,0.3-7.9-0.4c-1.1-1.7-6-6.6-14.8-14.4
		c-8.8-7.8-17.3-15.1-25.9-21.8c-8.5-6.8-13-9.5-13.5-8c0.1,0.6,1.1,2.8,3.1,6.4c0.9,2,2.5,4.5,5,7.4c2.4,2.1,4.8,3.8,6.9,5.3
		c2.2,1.4,3.5,2.2,3.9,2.4c1.6,0.7,3.7,3.8,6.5,9.1c2.7,5.4,5.8,11.9,9.4,19.7c6.6,13.7,13.2,27.7,19.7,42.2
		c6.6,14.5,12.4,29.1,17.3,44c2.3,7.5,4.3,15.1,6.1,22.6c2.9,13.1,5,26.3,6.3,39.5c0.2,6.5,0.2,12.9,0,19.2
		c1.1,15.8,1.2,30.3,0.2,43.6c-1,13.4-3.3,27.5-7,42.5c-0.4,1.7-0.7,2.8-1.1,3.2c0.1-0.4,0.1-0.7,0.1-0.7c-0.2-0.2-0.6-0.3-1.2-0.5
		c-0.5,1.7-0.5,2.3-0.1,2c0.2,0,0.6-0.2,1.2-0.7c-0.4,2.3-1.1,5.7-2.1,10.3s-1.8,7.6-2.4,9.1c-0.6,2.5-2.1,6.8-4.4,13
		c-3,6.3-5.5,11.2-7.9,14.5c-1.1,1.4-2.1,2.9-2.8,4.5c-2.2,5.2-5,9.1-8.7,11.8c-3.7,2.8-7.1,6-10.1,9.7c-1.4,1.8-2.8,4-4.5,6.5
		c-1.8,2.4-3.3,4.6-4.8,6.3c-1.1,0.9-2.2,2-3.6,3.2c-1.1,1-2.5,2-4.1,3c-1.7,0.9-2.6,1.6-2.8,2c-0.9-0.7-1-1.7-0.3-2.9
		c0.3-0.9,1.1-1.6,2.4-2.4c1.3-0.6,2-1.1,2.4-1.3c0.9-0.7,1.7-1.3,2.5-2.1c1.9-1.7,3.9-4.1,6-7.1c2.1-3.1,3.5-5.1,4.3-6.2
		c0.6-0.5,2-1.8,4.3-3.7c2.5-1.9,5-4.2,7.5-6.7c2.5-3,4.2-5.7,5.3-8c0.9-1.2,1.7-2.4,2.4-3.5c1.7-2.6,3.8-6.6,6.4-12.2
		s4.9-10.9,7-15.8c2.1-4.8,3.1-7.3,3.2-7.7c-0.1-0.6,0.4-2.6,1.4-6.3c1-3.6,1.5-6.7,1.6-9.1c0.1-0.2,0.3-0.3,0.7-0.2
		c0.7-3,1-5.3,1-7.2c-0.4-1.1-1-1.8-2-2.1c-0.8-0.2-2.1-1.4-3.8-3.5c-3.8-5.2-7.5-10.7-11.3-16.6c-3.9-5.9-5.9-9.1-6.4-9.6
		c-0.3-0.2-0.9-1-2-2.5c-1.5-1.8-3.6-4.7-6.5-8.6c-5.2-7.1-11.1-15.5-17.9-25.3c-3.7-6.1-7.3-12.1-10.8-17.9
		c-6-7.8-10.9-14.1-14.7-18.7c-2.3-3.5-3.6-5.7-3.7-6.5c-2-5.6-2.6-9-2.1-10.2c0.5-1.1,1.6-2.5,3.4-4.1c2-2.2,3.6-5.5,5-9.6
		c0.1-0.4,0.2-0.9,0.4-1.4c0.3-1,0.4-2,0.7-3c0.6-3.9,0.9-7.5,0.7-10.7c-0.1-4-1.8-7-4.9-8.8c-0.8-1-1.9-1.7-3.2-2.2
		c-1,0-2.2-0.5-3.9-1.8c-1.5-1.2-2.5-4.2-2.8-8.8c-0.1-0.7-0.5-4.9-1.3-12.9c-0.7-8-1.8-17.4-3-28c-1.4-11.1-3-21.1-4.8-29.9
		s-3-13.9-3.8-15.2c-1.4-2.3-2.1-1-2.4,3.5c-0.1,3-0.1,6.7,0.1,11.3c0.3,2.2,0.6,3.9,1.2,5.1c0.6,5.3,0.6,10.5,0.1,15.4
		c0,5.9,0.4,9.4,1,10.5c1,3.7,1.9,10.3,2.6,19.9c0.9,5.9,1.5,11.6,2,17.1c0.5,5.3,0.3,9.3-0.7,12c-0.8,1.3-1.9,2.2-3.1,2.5
		c-1.2,0.3-2.2,0.8-3.1,1.6c-0.7,1.1-1.1,3-1.1,5.9s0,5.8,0,8.8c0.1,2.1-0.1,3.7-0.7,4.7c-0.2,0.1-0.3,0.3-0.4,0.5
		c-0.3-0.1-0.6-0.2-0.9-0.5c-0.9-0.5-1.9-1.6-3-3.2c-2.3-2.2-5.3-4.6-9-7.3c-4.8-2.9-12.8-11-24-24.2c-3.7-4.3-8-8.5-12.6-12.8
		c-6-4.5-11.9-9.2-17.9-14c-2-1.8-4-3.9-5.7-6.2c-0.9-2.7-1.9-4.9-3.2-6.9c-2.2-1.3-4.1-2.5-5.8-3.9c-6.3-8.7-12-15.8-17.3-21.4
		c-5.2-5.5-8.1-9-8.9-10.4c-0.8-1.1-2.6-2.4-5.6-3.9c-1.1-0.5-2.2-0.8-3.2-0.8c-1.1,0.1-1.2,0.7-0.3,1.6c1.5,1.4,4.7,6,9.7,13.7
		c3.3,3.4,7,7.4,10.9,12c2.6,5.1,5.3,10.6,8.1,16.5c5.2,8.5,10.5,17.2,15.7,26.2c5.9,11.1,11.9,24.4,18,39.7
		c0.7,1.7,1.4,3.5,2.1,5.3c0.5,1.5,1.1,3,1.6,4.4c4.6,12.1,8.7,24.6,12.2,37.2c4.6,16.1,7.6,31,9.1,44.7c0.4,3,0.9,7.3,1.5,13.1
		c0.1,1.9,0.3,3.9,0.4,5.9c0.2,4.2,0.2,8.6,0.1,13.3c-0.6,11.1-1.9,21.5-3.9,31.5c-2.1,10-4,18-6,24c-1,3.4-2.2,7.2-3.5,11.2
		c-1.2,4.1-2.6,7.7-4.1,10.6c-4.3,7.4-9,14.4-14.3,21c-5.2,6.5-8.9,10.5-10.9,12.1c-0.8,0.7-3.7,3.9-8.5,9.3
		c-5,5.4-10.9,11.3-17.7,17.5c-6.3,5.4-12.3,9.9-17.9,13.3c-5.7,3.6-9.4,5.9-11.4,6.9c-1.6,1.1-4.5,3.2-8.5,6.7
		c-4.1,3.4-5.6,5.6-4.5,6.5c2,0.1,6.1-1.6,12.5-5.5c6.3-3.9,13.7-8,22-12.3c8.4-4.3,16.8-7.2,25-8.4c0.5,0,1.8-0.2,3.7-0.3
		c4.3-0.5,10.6-1.2,19-2.4c8.2-1.2,16.6-2.1,25.2-2.7c7.5-0.8,13.8-1.1,19-1c2.3,0.1,4.4,0.4,6.6,0.9s3.5,1.5,4.2,2.8
		c0.5,2.6,0.5,5.6-0.3,9.2c-0.7,3.5-1.2,5.9-1.4,7.2c0.3,6.5,0.2,11.5-0.1,15c-0.3,0.6-1.5,1.4-3.2,2.3c-1.7,1-3.2,2.1-4.5,3.3
		c-2.3,3.9-3.4,6.4-3.5,7.4c-2.5,0.8-4.6,1.1-6.5,1.1c-3.3,1.7-5,3.6-5.5,5.8c-0.5,2.1-1.1,3.7-2.2,4.6c-3.1,1.9-5.9,3-8.3,3.5
		c-2.5,0.4-4.7,1.3-6.5,2.4c-2.5,2.1-4.3,4.6-5.4,7.6c-0.7,2-1.5,3.9-2.4,5.5c-0.6,1.2-1.5,2.2-2.6,3.2c-4.1,1.3-7.9,2.9-11.3,4.6
		c-1.8,1.7-3.3,4.1-4.5,7.6c-1.2,3.3-1.8,6.7-1.8,10.1c0.1,4,1.1,7.4,3,10.2c1.9,2.8,3.8,5.2,5.5,7.3c1.4,1.9,2.2,3.7,2.6,5.2
		c1,2.6,0.4,5.5-1.9,8.9c-2.9,2.6-7,4.8-12.4,6.9c-5.5,2-11.3,4.5-17.7,7.4c-14.3,7.5-27.5,14.2-39.5,19.9c-9.7,4.3-19.8,6.6-30.4,7
		c-4.6,0.4-8.5-1.2-11.8-4.8c-3.5-6.5-3.4-11.7,0.3-15.4c3.8-3.8,8.2-5.7,13.3-5.9c5.2-0.3,7.9,1.6,8.3,5.6
		c-0.2,3.4-1.5,5.1-3.6,5.3c-2.3,0.1-4.3-0.5-6.3-1.9c-0.7-0.6-1.2-1.5-1.4-2.6c-0.1-1.3-0.3-2.3-0.6-3c-0.3-0.8-0.6-0.7-1,0.3
		c-0.4,1.3-0.7,3.1-1,5.4c-0.4,2.4,0.1,4.5,1.3,6.2c2,2.3,4.8,4,8.5,5.1c4.3,0.7,7.7-0.2,10.2-2.8c2.4-3.7,3.6-6.5,3.7-8.2
		c0.7-2.4,1.2-5,1.2-8.1c-1.8-7-7.6-10.9-17.5-11.8c-10.6,0.2-19.3,4.1-25.8,11.6c-2,2.1-3.6,4.4-4.8,6.9c-0.7,1.1-1.3,3.1-2.1,5.9
		c-0.7,3-1,5.9-0.7,8.8c1,10.2,4.7,17.1,11,20.9c2.4,0.6,5.2,1.2,8.4,1.9l636.2-0.3c4.1-0.5,6.2-0.8,6.4-1c2.1-0.4,4-2.7,5.6-6.9
		c0.5-3,0.3-6.4-0.6-10c-0.3-3.9-1.7-6.9-4.1-9.1c-2-0.9-4.9-1.1-8.4-0.6c-0.7,0.1-1.9,1.1-3.4,3.1c-0.8,0.7-0.7,1.7,0.4,3
		c1.4,0.7,2.4,1.2,3.3,1.6c0.6,2.2-1.3,3.4-5.9,3.6c-4.5,0.2-8.2-0.8-11.2-3c-3.1-2.4-5.5-4.3-7.2-5.7c-1.7-1.3-3.1-2.9-4-4.8
		c-0.9-2.5-1.6-4.8-2.2-6.7c-1.4-2.8-3-4-4.9-3.3c-0.6,0.6-2,2.3-3.9,5.1c-4.2,4.6-9.6,8.6-16,11.9c-6.3,3.4-12.2,2.9-17.6-1.7
		c-3.2-2.8-5-5.6-5.2-8.6c0.8-3.4,3.7-4.3,8.8-2.6c1.2,0.9,2.8,2.4,4.8,4.4c3.3,2.5,5.3,3.4,6,2.8c-0.5-1.6-2-4.6-4.5-9.2
		c-2.7-6.7-6.8-12.9-12.4-18.4c-6-5.2-12.3-8.9-18.6-10.8c-4.2-0.5-8.7-1.2-13.3-2.1c-0.2,0-0.4,0-0.6-0.1c-0.1-0.6,0-2.9,0.5-6.8
		c0.5-3.9,0.7-6.3,0.8-7.5c0.4-7.3-0.4-14.4-2.6-21.1c-1.5-3.1-2.8-5.6-3.8-7.4c-1.2-1.8-0.4-2.7,2.2-2.8c2.4,0,6.1,0.3,11.1,0.9
		c5.1,0.6,10.5,0.8,16.3,0.6c7.6-0.5,14-1.7,19.2-3.5c5.2-1.9,8.6-3.2,10.4-3.9c7.4-2.3,14.9-6.1,22.3-11.3
		c7.4-5.3,13.5-11,18.2-17.1c1.6-2.5,3.2-4.9,4.5-7.3c1.4-2.5,2.5-4.9,3.5-7.2c1.4-2.3,2.6-5.8,3.9-10.8c1.2-4.9,1.5-12,0.6-21.3
		c0-0.5,0.5-0.8,1.5-0.6s1.7,0.2,2-0.2c1.3-2.5-0.1-5.2-4.1-8.1c-4.6-3.8-9.7-7.6-15.4-11.4c-5.6-3.7-8.6-6.7-9.1-9.1
		c0-2.9,0.7-4.7,2-5.6c1.1-0.9,3.6-2.8,7.5-5.9c5.9-5,12.6-10.8,20.4-17.4c7.7-6.6,14.8-12.7,21.1-18.2c6.2-5.7,10.1-9.4,11.5-11.4
		c1.8-3.1,2.3-5,1.3-5.6C690,452.1,684.6,455.3,676.5,461.7z M371.5,124c1.2,0.9,3.1,2.2,5.6,4c4.5,3.2,9.3,6.5,14.3,10.1
		c5,3.5,8.5,5.9,10.6,7.2c1.1,0.7,2.1,1.3,3.2,1.9c2,1.2,3.9,2.3,5.6,3.2c2.6,1.5,4.1,2.2,4.5,2.2c1.5,0.4,2.5,1.6,3.1,3.8
		c0.7,2.1,1,4.3,0.9,6.7c0.1,4.4-0.5,7.4-1.7,9.1c-2.2,0.7-3.7,0.3-4.5-1.4c-0.9-1.5-3-4.4-6.5-8.7c-0.4-0.6-0.9-1.2-1.4-1.7
		c-2.6-3.2-4.6-5-5.6-5.4c-0.6-1.2-2.9-3.6-6.9-7.3c-4.1-3.7-6.6-5.9-7.5-6.4c-0.3-0.3-1.9-1.8-4.9-4.8c-3.1-3.1-5.9-6.1-8.4-9
		c-1.3-1.6-2.1-2.8-2.5-3.5c-0.3-0.7-0.2-1.1,0.4-1.1C369.9,122.9,370.6,123.3,371.5,124z M425.8,171.5c1.1-2.2,1.8-3.5,2.2-3.9
		c0.1,0,0.1,0,0.1,0c0.3,0.9,2,3.4,5,7.6c2,2.7,4.1,5.9,6.1,9.7c2.4,3.3,4.7,7.5,7,12.4c3.4,6.5,4.7,10.5,4.2,12
		c-0.2,0.2-0.5,0.2-1,0c-1.8-1.8-4.6-4.7-8.3-8.8c-3.6-4.2-5.9-6.7-6.9-7.6c-4.6-3.3-7.9-8-9.6-14
		C424.3,176.1,424.7,173.6,425.8,171.5z M415.7,274.7c4.2-5,7.1-8,8.4-8.7c0.1,0,0.2,0,0.3,0c0.4,0.4,1.7,2.4,4.1,5.9
		c2.3,3.5,5.3,8,9,13.2c5.3,7,10.2,14.4,14.7,22.3c1.5,2.9,3,6.4,4.6,10.7c1.5,4.3,2.6,8,3.1,11.3c0.4,2.1,0.7,4.2,0.9,6.1
		c0.1,2,0,3.1-0.5,3.4c-2.2,0.1-7.5-4-15.7-12c-5.9-6.6-12-13.3-18.2-20c-5.5-4-10.3-7.4-14.5-10c-5.3-5.4-6.5-10.5-3.4-15.3
		C410.6,279.1,412.9,276.9,415.7,274.7z M373.8,218c5.1,3.8,10.9,7.5,17.4,11.2c3.2,1.7,5.1,4.9,5.9,9.7c-0.2,1-0.8,2.7-1.9,4.8
		c-1,2.2-1.6,5.1-1.8,8.6c0.5,5,1.4,10.1,2.7,15.3c0.6,2.7,1.1,5,1.5,7.1c-0.4,3.4-0.8,5.4-1.3,5.9c-0.9,1-3-0.5-6.2-4.3
		c-2-1.9-5.5-5-10.6-9.4c-5.1-4.5-10.6-9.2-16.3-14c-4.7-4.2-8.8-7.6-12.1-10.5c-3.4-3-5.3-4.6-5.7-5c-1.3-1.3-5-5-11.3-11
		c-6.2-6.1-13.3-12.7-21.3-19.7c-6.9-5.7-12.9-10.8-18.3-15.1c-5.4-4.3-8.2-7.2-8.6-8.6c0-0.5,0.5-0.6,1.3-0.6
		c2.9,0.2,7.9,1.1,15,2.7c8.7,1.5,16.7,3.5,24.2,6c11.4,4.9,21.9,10.4,31.5,16.4C363.4,210.7,368.6,214.3,373.8,218z M584.1,239.1
		c1-5,2.1-8,3.4-9.2c0.1,0,0.2-0.1,0.4-0.1c1.1,0.5,1.9,3.8,2.5,10c0.5,6.2,0.9,12.6,1.1,19.1c0.4,6.5,0.6,10.5,1,11.7
		c0.3,0.8,0.5,2,0.9,3.8c0.6,3.2,1.3,8.5,2.1,15.7c1.5,11,2.5,21.8,3.3,32.6c0.7,10.9,0.6,17-0.7,18.6c-2.2,0.8-4.6-1.4-7.2-6.7
		c-2.7-5.3-5-11.4-7-18c-1.9-6.7-2.9-11.7-3-14.7c-0.4-0.8-1.7-4.3-3.8-10.5c-2-6.1-3.1-10.6-3.5-13.3c-0.1-1-0.2-2.3-0.1-3.7
		c0-1.1,0.2-2.3,0.4-3.7c1.6-4.8,3.7-10.1,6.1-15.8C581.8,249.3,583.2,244,584.1,239.1z M569.2,289.6c0.2-1.2,0.8-2,2-2.5
		c0.2,0.1,0.4,0.2,0.7,0.3c1.1,1.5,2.5,4.7,3.9,9.9c1.3,5,2.2,8.1,2.5,9.1c0.2,1.9-0.3,2.8-1.3,2.7c-1.7-1.2-3.5-3.2-5.5-6.1
		c-1.9-2.9-3.1-6.1-3.6-9.7C568,291.4,568.5,290.2,569.2,289.6z M550,260.7c4.7,2.2,8.9,5.1,12.6,8.7c1.4,1.8,2.2,3.4,2.5,5
		c0.3,0.7,0.3,1.5,0.2,2.2c0.3,2-0.3,4.2-1.9,6.5c-1.9,1-3.2,1.2-3.6,0.6c-0.6-0.3-2.2-2.8-4.7-7.4c-0.4-0.7-0.8-1.3-1.1-1.9
		c-2-2.9-3.9-5.7-5.7-8.5c-1.3-2.3-2.4-4.1-3.4-5.5c-1-0.9-1.6-1.5-1.7-1.7c0.4-1,0.8-1.4,1.3-1.4
		C545.3,257.6,547.2,258.7,550,260.7z M512,367c4.5-0.4,8.4-0.2,11.7,0.7c2.5,0.7,5.3,1.6,8.4,2.6c3,0.9,3.5,3.3,1.4,7.3
		c-0.8,0.8-2,1.3-3.4,1.7c-5.7,1.4-9.1,3.8-10.1,7c-0.1,1-0.3,2.8-0.5,5.1c-0.4,2-0.8,3.2-1.5,3.8c-0.8,0.2-1.9-0.8-3-2.7
		c-1.6-1.6-3-3-4.1-4.4c-0.7-0.8-1.9-2-3.8-3.5c-2-1.5-3.5-2.5-4.5-3.2c-1-0.8-3-2.7-5.9-5.6c-2.8-2.9-4.6-4.6-5-5
		c-0.6-0.2-1.8-1.5-3.5-3.8c-1.8-2.3-2.5-3.4-2.3-3.6c3.2,1.2,7.5,2,13.3,2.7C504.9,366.7,509.1,367,512,367z M545.5,378.3
		c1.3,0.3,3,1.6,5.1,4.3c2.4,2.5,4.9,5.1,7.4,8.2c2.5,3.1,4.6,5.7,6.2,7.9c0.9,1.2,2.3,3.6,4.3,7.2c2,3.7,3.7,8,5.1,13.2
		c2.7,10.2,3.2,19,1.6,26.5c-0.7,3.2-2.1,5.3-4.2,6.2c-2.1,0.1-4.8-1.7-7.8-5.4c-3.1-2.4-5.9-5-8.3-7.8c-1.8-2.7-2.6-5.1-2.4-7.3
		c0.7-1.1,1.8-1.9,3.1-2.6c0.8-1,0.5-2.2-0.6-3.8c-0.7-0.5-1.5-0.9-2.5-1.4c-0.7-0.6-1.9-1.7-3.5-3.4c-1.6-1.8-2.6-3.6-3.1-5.4
		c0-1.7,0.4-3.1,1.3-4.1c0.9-1.2,1.2-2,0.8-2.5c-0.7-0.8-1.5-0.7-2.6,0c-1.3,1.8-2.4,3.3-3.5,4.5c-1.3,0.3-1.9-0.5-1.9-2.2
		c0.1-1,1.3-1.8,3.5-2.4c2.1-1.6,4-3.4,5.7-5.7c1.1-1.4,1.7-3.8,1.6-7.4c-0.6-3.8-1.5-6.5-2.8-8.2c-1.3-0.6-2.6-1.4-4-2.3
		c-1-1.8-1.2-3.3-0.7-4.3C544,379,544.6,378.4,545.5,378.3z M603,390.1c0.3,0,0.5,0.9,0.5,2.6c0.2,0.6,0.9,5.9,1.8,16
		c1.1,10.2,2.2,22.2,3.3,35.9c1.2,13.8,2.3,26.3,3.2,37.7c0.8,11.2,1.3,18.3,1.4,21c-4.6-0.5-8.8-2.5-12.7-6c-3.9-3.6-7.1-5.6-9.8-6
		c-0.7-1.6-3.6-3.2-8.4-4.7c-4.8-1.6-7.5-2.9-8.3-3.8c-1-0.7-2-1.4-3-2.2c0.7-1,3.9,0,9.5,3c5.7,3,9.8,4.7,12.4,5.3
		c0.2,2.5,1.6,2.7,3.9,0.6c2.3-2.1,4.2-4.6,5.4-7.7c1.3-3.1,0.4-4.7-2.6-4.9c-0.2-2.8-2.1-5-5.6-7c-3.5-1.9-7-4.2-10.5-6.7
		c-3.5-2.6-5.4-6.1-5.7-10.6c2.2-0.4,4.8-3.4,7.8-9.2c3-5.6,5.8-11.7,8-18.3c2.4-6.5,3.6-11.3,3.8-14.2c0.2-1,1.1-4.5,2.5-10.5
		C601.2,394.3,602.3,390.9,603,390.1z M154.3,259.1c1.3,0.4,2.9,1.8,4.9,4.1c2,2.2,3.4,3.5,4.1,3.8c0.6,0.8,2.9,3,6.9,6.6
		c4,3.7,6.5,5.8,7.5,6.3c0.3,0.8,1.7,2.4,4.4,4.6c2.6,2.2,4.3,3.4,5.3,3.8c0,0.1,0.1,0.1,0.2,0.3c0.7,0.8,2.3,2.3,5,4.4
		c0.2,0.1,0.3,0.3,0.6,0.5c3.4,2.6,5.7,5.1,7,7.6c1.2,1.7,1.8,4.3,1.8,7.6c0,1.4-0.4,2.7-1.2,4.2c-0.6,0.5-1.5,0.5-2.4,0.2
		c-2.2-1-3.4-2.3-3.5-3.7c-0.9-1.3-3.6-4.8-8-10.3c-2-2.6-3.7-4.6-5.1-6.1c-1.6-1.7-2.7-2.9-3.5-3.3c-0.1-0.2-0.3-0.6-0.6-1.1
		c-1-1.3-2.9-3.5-5.6-6.5c-3.7-4-5.9-6.2-6.5-6.8c-0.5-0.8-2.5-3.4-6-7.7c-3.5-4.3-5.5-6.8-6-7.5
		C153.6,259.3,153.8,258.9,154.3,259.1z M216.6,332.1c-0.9-3.4-1.1-5.5-0.4-6.4c0.6-1,1-1.3,1.2-1.2c0.6,0.6,2,2.6,4.4,5.9
		c2.3,3.4,3.6,5.5,4,6.2c0.7,1,3.4,4.7,7.9,11.2c4.6,6.6,7.2,10.6,7.9,12.3c0.7,0.6,2.5,2.9,5.2,7c2.6,4.1,4.1,6.8,4.5,8.2
		c-1.8-0.2-4.5-2.6-8-6.9c-3.4-4.3-7.1-9.1-11.1-14.6c-2.6-3.7-5.4-7.2-8.1-10.4c-2.7-2.2-4.9-4.3-6.5-6
		C216.7,335.1,216.3,333.3,216.6,332.1z M183.6,592.8c0.8-1.7,2-3.4,3.5-4.8c0.8-1.3,1.6-1.9,2.1-1.9c0.8-0.1,0.9,2.4,0.1,7.5
		c-0.2,1.1-1,2.1-2.4,2.7C184.3,596.7,183.2,595.6,183.6,592.8z M201.7,583.7c-0.4-3.4-0.5-7.8-0.5-13.1c0.1-5.3,0.6-10.3,1.5-14.9
		c0-2.9,0.4-5.2,1.1-7c1-1,3.2-1.4,6.6-1.3c2.1,0.1,4.3,0.3,6.5,0.7c5,0.3,9.3,1.8,12.7,4.3c1.1,1.5,2.2,4.9,3.2,10
		c1,5.2,1.8,8.7,2,10.5c1,7.1,1.8,14.8,2.1,22.9c0.8,3,0.5,5.2-0.6,6.7c-0.5,0.2-1.7-0.6-3.6-2.1c-1.9-1.6-4.1-3.2-6.6-4.8
		c-2.8-1.9-7-3.9-12.7-6.4c-3.2-0.9-6.2-1.8-9.1-2.6C202.7,585.6,201.8,584.7,201.7,583.7z M289.6,525.2c1,0.5,1,1.2,0.2,2.3
		c-0.6,1.8-1.2,3.9-2.1,6.6c-2.5,4-5.3,6-8.6,6c-1.3-0.6-3.4-1.9-6.3-4.2c-4.2-2-6.6-3.2-7.2-3.3c1-1,4.5-2.5,10.3-4.3
		C281.8,526.4,286.3,525.3,289.6,525.2z M302.6,523.7c0.1,1.1-0.7,3.1-2.5,5.9c-1,1.1-1.7,2.4-2,4c-0.5,0.7-2,3.1-4.5,7.2
		c-2.7,4.1-4.2,6.3-4.7,6.4c0,0-0.5,1.4-1.5,4.1c-0.9,2.8-2,5.4-3.4,8c-2.6,4.3-4.4,4.8-5.6,1.8c-0.1-1.8,0.7-3.9,2.5-6.4
		c1.9-2.6,3.2-4.7,4.2-6.4c1.3-3.2,2.5-6.4,3.4-9.5c1.6-3.5,2.7-5.4,3.2-5.9c3.1-6.6,6.4-10.2,9.9-10.8
		C302.4,522.4,302.8,522.9,302.6,523.7z M316.9,519.5c0.2-0.2-0.2,1.3-1.3,4.9c-1.5,5.5-4.2,11.1-8.3,16.8
		c-4.1,5.6-7.4,10.6-9.9,15.1c-1.2,3.3-2.3,6.4-3.5,9.4c-3,3-4.8,4.1-5.7,3.5c-1.8-0.1-2.1-2.1-0.7-6c1.4-3.9,3.6-8.6,6.6-14.1
		c3.5-7.1,6.8-13.5,10.2-19.4c3.1-5,5.3-8,6.6-9c2.2-1,4.1-1.4,5.5-1.2C316.6,519.5,316.8,519.5,316.9,519.5z M316.1,529.8
		c1.1-2.4,2.8-4.9,5-7.5c2.4-2.2,4.3-3.2,5.5-3.2c0.2,0,0.3,0,0.4,0.1c0.6,0.4,0.4,1.8-0.6,4.2c-2.3,3.9-5.3,9.2-8.9,15.9
		c-4.4,10.2-8.3,19.1-11.6,26.6c-0.8,2.3-1.5,4.1-2,5.5c-1,1.8-2.3,2.8-3.8,3.2c-1.5,0.3-2.7-0.8-3.6-3.2c0.6-1,3.1-5.6,7.6-14
		c3-6.2,5.6-12.2,7.9-18C314.4,533.7,315.7,530.4,316.1,529.8z M271.2,559.4c-1.1,0.5-3.1-0.7-6.1-3.8s-4-6.8-3-10.9
		c0.3-0.7,0.7-1,1.3-1.1c2.3,0.6,4.5,1.6,6.7,2.8c1.4,0.5,3,2,4.8,4.5C276,553.9,274.8,556.7,271.2,559.4z M264.2,589.3
		c0.4-1.6,1.2-3.5,2.7-5.4c1.7-3.2,3.1-5.2,4.2-6c0.5-0.1,0.7,1.4,0.5,4.5c-0.6,2.3-1.4,3.9-2.5,4.8c-0.9,1.4-2,2.5-3.2,3.2
		c-0.4,0-0.8-0.1-1.3-0.2C264.1,590.3,264,590,264.2,589.3z M279.2,584.5c0.9-0.1,1.4,0.2,1.8,0.5c0.8,1.6,0.4,4-1.3,7.3
		c-1.6,3.4-2.9,4.9-3.6,4.5c-0.7-0.5-1.5-1-2.3-1.2c-1.2-0.6-1.4-1.7-0.7-3.3c1.1-0.9,2.1-3,3.3-6.2
		C276.8,585.1,277.7,584.6,279.2,584.5z M312.1,566.2c3-6.6,6.1-13.4,9.5-20.3c3.2-7.1,6.8-13.8,10.8-20.3c2.1-3.5,4-6.2,5.5-7.9
		c0.8-0.6,1.5-0.9,2-0.9c2,0,0.5,3.8-4.3,11.5c-1.3,1.7-3.7,6.6-7.2,14.6c-2.9,6.5-6,13.6-9.5,21.2c-0.9,2.6-1.9,5.2-3,7.6
		c-0.2,1-0.8,2.6-1.6,4.4c-1.8,2.4-3.6,3.8-5.4,4.2c-1.8,0.4-2.3-1-1.5-4.3C308.7,572.7,310.3,569.4,312.1,566.2z M288.9,589.7
		c0.7-0.1,1.5,0.3,2.5,1.2c1,2.1,1.4,3.5,1.2,4.3c-0.5,2.1-1.7,4.2-3.7,6.1c-1.9,2-3.8,2.2-5.9,0.4c-0.9-1.1-0.9-2.4-0.1-3.6
		c0.7-1.8,1.9-3.7,3.4-5.4C287.9,590.8,288.7,589.8,288.9,589.7z M319.1,587.3c-2.7-0.9-3.7-2.4-2.7-4.6c1.1-2.1,2.5-5.1,4.3-9
		c2.1-5.3,5.1-12,9-20.3c0.7-1.4,2.2-4.3,4.4-8.9c2.4-4.6,4.8-9.2,7.1-14.1c1.7-3.3,3.2-6.3,4.7-8.8s2.5-3.9,3.1-4
		c0.1,0,0.1,0,0.1,0.1c1,2.8-0.5,7.9-4.5,15.3s-6.7,12.4-8.2,14.9c-0.4,0.8-1.6,3.9-3.6,9.3c-2,5.4-4.2,11.1-6.7,17.1
		c-1.5,3.5-3,6.6-4.2,9.2C320.6,586.1,319.6,587.3,319.1,587.3z M152.3,617.5c2-1.4,3.7-2.3,5-2.8c3.4-1.4,6.8-2,10.5-1.8
		c4.8,0.1,8.9,1.4,12.4,3.8c4.2,3.1,7.1,5.5,8.7,7c2,2,3.8,3.8,5.2,5.2c1.2,0.8,2.4,1.8,3.6,2.8c1.1,1,1.5,1.9,1,2.6
		c0,1.3-1.3,1.9-3.6,1.7c-0.9-0.5-2.5-1.8-5-4.1c-2.5-2.2-5.2-4.6-8-6.9c-3.7-2.7-5.9-4.2-6.7-4.3c-0.8,0.1-1.1,1.3-1,3.4
		c-0.2,2.6-0.2,4.2,0.3,4.9c1.1,1.1,1.8,4,2,8.8c0.2,4.8-1.3,8.3-4.5,10.5c-0.5,0-1.4-1-2.4-2.9c-0.7-2.2-1.6-3.4-2.6-3.6
		c-1,0.8-2,2.4-3.1,4.8c-0.9,1.7-2.5,4.4-5,8.2c-1.2,2.2-2.4,3.6-3.8,3.9c-2.2-0.6-4.7-1.4-7.4-2.2c-4.9,0.5-9.2-0.1-12.9-1.8
		c-2.4-1.9-3.8-4.5-4.1-7.9c-0.3-3.4,1-6.5,3.9-9.5c1.6-1.4,4.1-2.6,7.3-3.6c3.1-0.8,6.2-1.5,9.2-2.2c3.3-0.2,5.5-0.6,6.8-1.2
		c0.8-1.2,0.6-2-0.8-2.4c-1.3-0.5-2.8-1.1-4.5-1.7c-1.9-1.3-2.9-2.5-3.2-3.8C149.3,620.5,150.2,618.8,152.3,617.5z M157.6,676.7
		c-6.4,3.6-13.3,7.5-20.9,11.8c-5.1,3.4-9.9,6.2-14.3,8.4c-3.4,1.4-5.9,2.2-7.2,2.6c-1.4,0-1-0.5,1.2-1.6c2.3-1.2,5.1-2.6,8.4-4.4
		c6.2-3.3,12.7-6.9,19.5-10.6c6.9-3.9,13.1-7.6,18.8-11.2c5.1-3.2,10.6-6.4,16.5-9.7c6-3.3,11.4-6.5,16.3-9.7
		c13.9-10,23.6-15.6,29-16.6c0.7,0,1.2,0.1,1.7,0.4c0.7,0.9,3.5,2.7,8.4,5.7c5.5,3.2,11.5,6.5,18,10.2c5.1,2.5,9.3,4.7,12.8,6.5
		s5.1,2.8,5,3.2c-1.1,0.6-2.2,1-3.6,1.1c-1.4,0-2.8-0.5-3.9-1.7c-1.2-1.1-2.4-2.1-3.5-2.7c-6.5-2.4-13-5.6-19.6-9.7
		c-6.8-5.7-11.9-8.9-15.4-9.9c-3.2-0.1-6.4,1.5-9.6,4.7c-2.9,1.9-6.6,3.9-11.1,6c-5.8,2.8-15,8.2-27.7,16.3
		C170,669.6,163.7,673.3,157.6,676.7z M159.3,700.5c-0.1-0.5,0.5-0.9,1.8-1.3c1.5-0.7,3-1.7,4.5-2.7c6.2-4.2,13-8,20.1-11.4
		c3.7-1.9,6.2-3,7.6-3.1c2.1,0.5,2.5,1.1,1.1,2c-1.1,0.5-2.2,0.9-3.3,1.1c-0.9,0.5-2,1.3-3.3,2.2c-3.4,2.1-6,3.8-8,5.2
		c-1.9,1.2-5.3,3.2-10.3,5.9c-3.8,2.2-6.3,3.5-7.6,3.6C160.3,701.7,159.5,701.3,159.3,700.5z M319.1,613.1c-2.4-0.4-1.7-3.7,2.3-9.5
		c1.5-3.8,2.3-6.7,2.2-8.7c0.2-1.2,2-6.3,5.5-15.2c4.6-9.6,9.5-20.2,14.8-31.6c3.2-7.7,6.1-14.2,8.5-19.8c2.5-5.6,3.9-8.4,4.2-8.5
		c0.1,0.1,0.1,0.1,0.1,0.2c0.2,3-0.6,8-2.3,15.1c-1.7,6.9-3.5,14.6-5.5,23.1c-2.1,10.9-3.8,20.5-5.2,29c-2.1,8-3.5,12.1-4.3,12.3
		c-0.5,0.3-2.3,1.6-5.2,3.8c-2.9,2.2-4.7,3.4-5.3,3.8c-0.5,0.8-2.1,1.9-5,3.2C321.1,611.7,319.4,612.7,319.1,613.1z M309.6,601.5
		c0.7-0.1,1.5,0.4,2.3,1.5c1.3,1.9,1.6,3.9,0.9,6.1c-0.7,1.2-2.3,2.5-4.8,4c-2.5,1.4-3.6,0.8-3.1-1.9c0.7-2.9,1.2-4.8,1.3-5.6
		C306.8,603.5,307.9,602.2,309.6,601.5z M301.8,596.4c0.1,1.7,0.4,3,1,4c0.3,0.9-0.6,2.7-2.9,5.6c-0.8,1.6-1.6,2.7-2.5,3.3
		c-2.8,1.4-4-0.6-3.8-6.3c0.3-0.7,0.9-1.3,1.7-1.9c0.6-1.5,1.1-2.7,1.5-3.5c0.8-1.3,1.8-2,2.8-2.2c0.4-0.1,0.9,0,1.5,0.3
		C301.4,595.7,301.6,596,301.8,596.4z M297.3,629c0.6,0,1.1,0.2,1.6,0.8c1,2.4,1,4.1,0,5.4c-0.9,0.6-1.4,0.8-1.7,0.6
		c-0.4,0-0.9,0-1.3,0c-1.1-0.1-1.5-0.8-1.1-2.1c-0.2-1.1-0.2-2.2,0-3.2c0.5-0.9,0.9-1.2,1.2-1.2C296.3,629.2,296.8,629.1,297.3,629z
		 M285.5,629.2c-0.1-0.2-0.4-0.3-0.7-0.5c-0.7-0.2-1.1-0.6-1.1-1c-0.3-2.1,0.3-3.4,1.6-4c2.5,0,3.7,0.5,3.7,1.6
		C289.1,629.3,287.9,630.5,285.5,629.2z M317.4,625.2c0.2,0,0.5,0,0.7,0c1.9,0.6,4.2,1.5,7,2.5c5,1.3,8.1,2,9,2.1
		c2.8,0.7,2.9,1.7,0.4,3c-2.7,1.2-4.6,2-5.6,2.2c-2.5,0.2-4.7-0.4-6.8-1.8c-1.1-0.3-2.1-0.7-3-1.2c-1.3-0.7-3.3-1.8-6-3.3
		c-2.3-1.1-2.4-2,0-2.8C313.9,625.5,315.4,625.3,317.4,625.2z M307.8,639.5c-1.8-1.1-2.9-2.4-3.2-3.8c0.2-0.2,0.8-0.6,1.6-1.4
		c0.4-0.3,0.7-0.4,1.2-0.4c1.3,0.4,3.5,1.2,6.5,2.6c3.9,0.6,6.2,1.3,7.2,2.2c-0.1,1.1-1.9,2.1-5.5,2.8c-2.3,0.5-3.7,0.5-4.4,0.3
		C310.6,641.6,309.4,640.8,307.8,639.5z M265,613.7c0.4,0,0.9,0,1.5,0c0.2,0,0.4,0,0.6,0.1c1.5,1.7,1.3,3.2-0.3,4.5
		c-1.4,0.4-2.3,0-2.9-1.1c-1-0.5-1.7-0.8-2.2-1c0-0.4,0.2-0.7,0.5-0.9C262.8,614.5,263.8,614,265,613.7z M250.5,610.9
		c0.1-1,0.6-1.6,1.6-2c0.2-0.1,0.5-0.1,0.8-0.1c0.8,0.1,1.3,0.3,1.7,0.5c2.5,0.9,4.1,1.8,4.8,3c0,0.8-0.3,1.3-1,1.4
		c-0.3,0.8-0.8,1-1.5,0.8c-1.9-0.8-3.1-1.4-3.7-2.1C252,611.9,251.1,611.4,250.5,610.9z M256.2,626c-3-1-4.7-1.5-4.9-1.5
		c-4.2-0.8-8.5-2.4-12.9-4.8c-4.3-2.4-7.6-4.1-10-5.2c-0.7-0.3-1.6-0.3-2.5,0c-0.8,0.1-1.1,0.5-0.8,1.2c1.6,1.3,3.6,2.6,6,3.7
		c0.6,0.7,0.7,1.1,0.2,1.4c-1,0.9-2.7,0.7-5.3-0.3c-3.1-2.2-5.8-4.1-8.1-5.7c-2.2-1.6-4.7-3.6-7.5-5.9c-3.2-1.6-6-3.3-8.4-5
		c-0.8-2.1-0.3-4,1.7-5.7c0.1-0.1,0.2-0.3,0.5-0.3c2,0.8,5,2.7,9,5.8c3.9,3,8.5,5.9,13.7,8.6c1.9,0.8,3.8,1.1,5.7,1
		c1.6-0.5,3.1-0.7,4.5-0.6c6.8,2.3,11.4,4.3,13.7,5.9c5.8,3.1,11.7,6.6,17.8,10.6c4.3,1.8,8.5,3.4,12.4,4.5c2.9,2.3,5.4,4.5,7.5,6.6
		c3.9,2,7.4,3.1,10.7,3.4c3.2,0.3,5.3,0.9,6.1,1.8c-0.1,1.2-1.2,2.5-3.5,4c-1.2,0.3-2.2,0-3-0.9c-2.9-1.3-6.9-3.4-12-6.1
		c-0.4-0.3-2.6-1.8-6.5-4.3c-3.9-2.5-8.4-5.2-13.5-7.8C262.9,628.5,259.3,627,256.2,626z M278.9,624.5c-0.7,0.5-1.7,0.6-3.2,0.2
		c-2.1-1.3-3.3-2.7-3.5-4.4c-0.1-0.8,0.3-1.5,1.2-1.9c0.2,0,0.5,0,1,0c1.7-0.1,2.7,0.1,3.4,0.3C279.1,620.2,279.4,622.1,278.9,624.5
		z M279.2,672.9c-1.4-0.4-2-0.9-1.8-1.6c0-1.9,2.2-2.9,6.7-3c1.3,0.4,2.6,1.3,3.8,2.9c3,2.4,6.1,4.3,9.5,5.5c1.5,0,2.7,0.5,3.4,1.3
		c0.5,1,0.3,1.9-0.6,2.5c-1.5,0.1-2.9,0-4.3-0.4c-3.5-0.6-6.6-1.6-9.1-3.2C284.7,675.1,282.1,673.7,279.2,672.9z M322.1,679.5
		c-1.2,0.4-2,0.3-2.2-0.2c-0.3-0.4,0.7-1.4,3-3c3.1-2.1,5.2-3.6,6.2-4.3c2-1,4.1-1.7,6.5-2.4c2.2-0.6,3.8-1,4.8-1.3
		c0.4,0,0.7,0,1.1,0c2.6,0,5.5,1.4,8.6,4c2.2,1.4,3.5,2.2,3.8,2.5c0.3,0.5,0.7,1,1,1.5c-0.5,0.8-1.7,0.4-3.5-1.3
		c-1.3-1-2.5-1.7-3.6-2.1c-2.5-1.6-5.5-2.4-9-2.2c-2.4,0.8-4.5,1.9-6.4,3.3c-1.8,0.8-3.9,1.8-6.5,3.1
		C324.2,678.1,322.9,678.9,322.1,679.5z M308.2,684c0.5-0.5,1.1-0.7,1.9-0.8c0.9-0.1,1.6,0.2,2.1,0.8c2.4,2,4.7,3.6,6.7,4.9
		c1.5,1,2.9,1.9,4.1,2.6c1.1,0.8,0.8,1-1.2,0.9c-1.1-0.4-2.9-1.1-5.2-2.4c-1.5-0.4-2.8-0.8-3.8-1.1c-0.6-0.4-1.4-1.2-2.7-2.4
		C308.7,685.4,308.1,684.5,308.2,684z M205.8,628.1c0.3,0.6,0.4,1.4,0.3,2.2c-0.8,1-1.4,1.3-2.1,1c-0.6-0.7-2.3-2-5.1-3.8
		c-2.8-1.8-4.8-3.2-6.1-4.2c-2.1-1.6-4-3.1-5.7-4.9c-3.4-4.6-5.2-7.1-5.3-7.9c0.2-0.3,0.9-0.6,2.1-0.6c0.9,0,1.7,0.3,2.5,0.8
		c2,1.9,4.2,3.8,6.5,5.6c2,1.2,3.7,2.5,5.1,4C201.4,622.7,204.1,625.3,205.8,628.1z M555.6,516.8c0.2,4.4,0.2,7.9,0,10.5
		c-1.4,12.8-3.4,20.9-6.1,24.4c-1.7,4.2-3.1,5.8-4.1,5c-0.3-0.4,0-1.8,0.7-4.1c0.8-2.4,1.5-5,2.3-7.9c2.2-8.9,3.1-18.3,2.6-28.1
		c-0.4-4-0.7-7.6-1-10.8c-0.1-2.5-0.2-5-0.4-7.4c-0.1-2.4,0.1-3.6,0.5-3.7c0.5-0.1,1.8,3.1,3.8,9.7
		C554.9,508.3,555.5,512.5,555.6,516.8z M518.7,554.7c-1.9-0.9-4.6-1.8-7.8-2.8c-2.3-0.5-6.3-1.1-12-1.7c-2.8-0.1-4.8-0.3-6-0.5
		c-0.8-1.3-0.8-2.4,0-3.5c1.2-1.4,2.9-2,5.2-2.2c0.5-0.1,1-0.1,1.5-0.1c3.8,0.2,7.5,1.5,11.3,4.1c3.7,2.5,7.4,4.4,11,5.7
		c0.6,0.3,0.5,0.7-0.5,1.2C520.9,555.2,520,555.1,518.7,554.7z M485.7,563.3c0.2,0,0.4,0,0.5,0.2c0.8,1.8,0.6,3.8-0.7,6.2
		c-0.4,0.4-1.4,0.4-2.9,0c-1.4,0.1-2-0.8-2-2.8c-0.7-2.2,0.3-3.2,3.2-3.3C484.5,563.4,485.1,563.3,485.7,563.3z M500.9,563.5
		c0.8,0.2,1.3,1.1,1.5,2.7c0.2,1.5,0.2,2.4,0.2,2.6c0.6,0.6,1.6,1.5,3,2.6c1.9,2.4,4.3,1.9,7-1.7c2.6-2.8,4.1-3.9,4.6-3.3
		c0.7,1.9,0.6,3.5-0.3,5c-2.4,2.3-5.3,3.3-8.8,3.1c-0.6-0.2-1.2-0.4-1.8-0.8c-4.4-0.5-7.1-1.1-8.1-1.7c-0.5-0.9-0.5-2.1,0-3.3
		c-0.1-1.9,0.1-3.4,0.4-4.6c0.5-0.6,0.8-0.8,1.3-0.8C500.3,563.3,500.6,563.4,500.9,563.5z M514.1,581.3c0.4,0,0.9,0.1,1.4,0.4
		c0.9,1,1.7,2.1,2.7,3.2c1.9,0.5,3.4,0.6,4.5,0.2c0.2-0.1,0.3-0.2,0.3-0.2c2.2-1.2,3.8-1.8,5-1.8c0.1,0.2-0.4,0.8-1.5,1.8
		c-0.3,0.3-0.5,0.5-0.9,0.8c-1.7,1.4-3.5,2.7-5.1,4.1c-1,1-1.6,1.7-2.1,2.1c-0.9,0-2.3-0.2-4-0.8c-0.8,0.3-1.2,0.4-1.4,0.3
		c-0.5-1-1-2.4-1.8-4.1c-0.6-0.4-1.1-0.8-1.4-1.2c0-0.4,0.1-0.8,0.3-1.2c0.1-0.8,0.5-1.5,1.1-2C511.8,582.2,512.7,581.6,514.1,581.3
		z M549.8,584.9c3.7-3.3,7.2-6.5,10.4-9.6c3.9-3.8,8.2-7.3,12.8-10.6c2-1.1,5-2.5,9.1-4.1c4-1.7,7.3-2.4,9.5-2.5
		c2.3,0.3,4.4,0.7,6.4,1.2c1.1,0.1,1.9,0.3,2.5,0.4l3.6,1.1c2.3,0.3,4.6,0.6,7,1c2.2,0.8,3.9,1.8,5,2.9c1.7,1.6,3,3.5,4.1,5.7
		c3.2,4.7,4.7,9.5,4.7,14.5c-0.1,3.8-1,7.5-2.9,11.4c-2.5,4.3-5.6,8-9.4,10.9c-3.8,3-7.5,5.4-10.9,7c-6.9,3.5-12.6,5.8-17,7.3
		c-4.4,1.3-8.7,2-12.8,2c-1.4,0-4.5,0-9.5,0c-5.1-0.2-9.9-0.3-14.6-0.5c-4.8-0.2-7.3-0.5-7.7-1c0.1-1.6,2.3-3.7,6.4-6.3
		c4.3-2.7,8.9-5.7,14-9.1c0.8-0.7,3.6-2.9,8.5-6.8c4.9-3.9,10.8-8.2,17.6-13c0.9-0.6,1.9-1.2,2.9-1.9c4.7-3.2,9.4-6.1,13.8-8.8
		c2.1-1.4,4.3-3,6.7-5.2c1.8-1,2.9-2.1,3.5-3.5c-0.1-0.8-2-2.4-5.5-4.7c-1.8-0.9-3.6-1.5-5.4-1.9c-1.7-0.4-2.7-0.6-3-0.6
		c-1,0.1-2.8,0.1-5.4,0.1c-0.6,0.3-1.2,1.4-1.6,3.2c-0.3,0.6-1.6,1.7-4.1,3.3c-4,1.8-8.9,4-14.5,6.8c-0.8,0.4-3,1.8-6.4,4.1
		c-3.5,2.1-7.4,4.6-11.7,7.2h-0.1c-13.2,7.8-20.2,11.4-21.2,10.9c-0.6-0.1-0.1-0.8,1.3-2c3.1-1.5,6.8-3.6,11.1-6.5
		C547.9,586.4,548.9,585.7,549.8,584.9z M430.9,493.8c2.5-3.8,4.1-5.7,5-5.9c0.6,0,0.1,1.7-1.5,5.3c-1.3,2-2.9,4.9-5,8.5
		c-1.8,4.4-4.3,9.8-7.5,16.5c-2.2,3.7-4.6,7.9-7.3,12.5c-1.6,3-3.4,5.4-5.3,7c-2,1.7-3.2,2.6-3.7,2.7c-1.3-0.2-1.7-1.9-1-5.1
		c-0.8-2.2-1.2-4.3-1.4-6.1c-0.1-1,1.1-1.6,3.7-2.1c1.3-0.1,2.2,0.2,2.6,0.8c0.4,0.7,0.7,0.9,0.9,0.9c1.2-0.7,2.5-1.9,3.9-3.5
		c1.3-1.5,2.1-2.5,2.3-2.7c2.2-2.9,4.4-6.7,6.8-11.5C426,504.7,428.6,498.9,430.9,493.8z M369.4,529c0-1.3,0-3.1,0-5.3
		c0.2-2.3,1-3.6,2.8-4.1c0.2,0,0.6,0,0.9,0c1.7,0.1,4.2,0.2,7.3,0.4c3.2,0.2,5.5,0.9,6.7,2.4c0.5,1.2,0.5,3.5,0,6.9
		c-0.5,3.4-1,7.3-1.2,11.5c-0.3,5.3-0.3,10-0.2,14.5c0.1,4.4-0.1,7.4-0.5,9c-0.9,3.3-4.9,7.1-12,11.6c-3.1,2.4-5.8,4.4-8.3,6.3
		c-2.5,1.8-3.9,2.5-4.2,2.1c-0.9-3.6-1-6.7-0.1-9.4c0.8-2.6,1.8-5.7,2.9-9.1c0.9-4.2,1.9-10.2,3.1-18c0.4-2.2,0.9-5.1,1.5-8.7
		C368.6,535.6,369.1,532.2,369.4,529z M366.4,520.6c0.1,1.1,0,3.9-0.5,8.6c-1,5.2-2.3,11.4-3.8,18.5c-1.1,8.2-2,16-2.9,23
		c-1.3,9.4-2.8,15.4-4.5,18c-2.1,2.2-3.1,1.6-3-2c1.1-4.1,2.4-9.4,3.9-15.8c0.3-4.3,0.6-8.4,0.8-12.3c0.6-5.4,1.2-9.1,1.8-10.9
		c0.2-0.6,0.9-3.3,2.3-8c1.4-4.7,2.6-9.1,3.6-13.4c0.3-1.8,0.3-3-0.2-3.5c-0.4-0.4-0.5-1.1-0.2-2.2c0.5-1.4,1.1-2,1.7-1.8
		C365.9,519,366.2,519.6,366.4,520.6z M398.6,529.3c0.3-1.3,0.5-2,0.7-2.1c0.1,0,0.2,0.1,0.3,0.3c0.5,1.9,1,3.8,1.3,5.6
		c0,2.6-0.1,5.6-0.6,8.8c0.3,1.8,0.3,4.1-0.2,7c-1,2.2-1.5,2.4-1.5,0.7c0-1.6,0-2.7,0-3.3c0.1-1.5-0.1-2.7-0.5-3.9
		c-0.2-3.6-0.2-7.1,0-10.5C398.2,531.6,398.4,530.7,398.6,529.3z M390.9,525.3c0.3-1.2,0.7-1.7,1.2-1.6c0.3,0,0.5,0.4,0.7,0.8
		c0.6,3.4,1,6.8,1.1,10.2c0,3.4,0.1,6.9,0.2,10.5c0.3,2.7,0.1,5.4-0.5,8.1c-0.4,2.1-0.6,3.8-0.7,5c-1.7,2.4-2.7,1.1-2.9-4
		c-0.3-2.2-0.4-4.7-0.4-7.4c0.2-4.5,0.5-9,0.9-13.6C390.6,529.9,390.8,527.3,390.9,525.3z M376.5,583.1c1.1,0.1,1.1,0.5-0.3,1.2
		c-0.4,0.4-1.3,2.1-2.3,5c-1.2,2.9-2.7,5.9-4.7,9.1c-3.8,5.5-7.3,8.2-10.4,7.9c-1.4-0.9-2-2.2-1.9-4c0.1-1.2,0.5-2.7,1.3-4.4
		c0.9-2.4,2.2-4.7,4-6.9c3.4-3.1,5.7-4.8,7.2-5.2c0.7-0.6,2.3-1.5,4.8-2.5C375.1,583,375.9,582.9,376.5,583.1z M395.2,587.9
		c1.4-0.1,1.8,0.8,1.2,2.7c-0.6,2.3-1,3.6-1.1,3.7c-0.2,0.2-1.4,0.4-4,0.4c-1.1,0.6-1.4-0.3-0.9-2.8c-0.3-1.3,0.2-2.5,1.4-3.3
		C392.7,588.3,393.9,588.1,395.2,587.9z M457.9,543.6c3.6-0.7,7.3-1.1,11-1.3c1.1,0,2.1,0,3,0.1c3.7,0.3,5.7,1.1,6,2.6
		c0.2,1.4-2.8,3.4-9,5.8c-5.5,1.3-11.3,2.5-17.6,3.5c-5.5,1.7-11.1,3.3-16.5,4.9c-6.6,2.1-12.2,3.8-16.8,5.2
		c-4.7,1.5-7.4,2.3-7.9,2.5c-4.1,0.3-4.5-1.4-1.3-5.1c1.8-1.3,4.1-2.6,7.2-3.7c3-1.2,5.9-2.3,8.7-3.4c3.7-1.8,6.3-3,7.9-3.8
		c4-1.4,9.8-3.3,17.3-5.6C451.4,544.8,454.1,544.3,457.9,543.6z M422,578.9c0.4,0,0.8,0.2,1.2,0.4c0.6-0.1,0.7,1.2,0.4,4
		c0.2,1-0.7,1.4-2.5,1.4c-0.7,0.2-1.2,0.2-1.7-0.2c0.1-0.6,0.2-1.2,0.5-1.9c-0.1-0.9-0.2-1.6-0.2-2.3
		C420.1,579.4,420.9,578.9,422,578.9z M408.9,585.3c0.5,1,0.4,2-0.3,2.8c-1.5,1.2-2.7,1.7-3.7,1.5c-0.8-2.5-0.9-4.1-0.5-4.9
		c0.4-0.6,1.1-0.9,2.1-0.9C407.4,583.9,408.2,584.4,408.9,585.3z M437.8,576.3c0.4,1,0.3,2.4-0.4,4.2c-1.8,1.8-3.1,1.3-4-1.5
		c-0.3-1.3-0.4-2.3-0.3-3.1c0.3-0.3,0.7-0.5,1.1-0.5c0.4,0.1,0.9,0.2,1.4,0.2C436.8,575.4,437.6,575.7,437.8,576.3z M431.6,589.8
		c1-0.5,2-0.7,3-0.9c0.5,0,0.7,0.5,0.6,1.5c-0.4,0.8-1.8,2.9-4.3,6.3c-1.5,3.1-2.8,6.5-4.1,10.2c-1.4,3.8-2.2,6.4-2.5,7.8
		c-0.4,2.1-1.4,5-2.7,8.6c-1.4,3.7-2.9,6.7-4.5,9c-3.5,3.6-5.5,5-6.2,4.2c-0.7,0-0.6-1.5,0.2-4.6c0.9-3,1.9-6.4,3.1-10.2
		c1.3-4.4,3.5-10.3,6.7-17.8C424.1,596.5,427.7,591.8,431.6,589.8z M469.7,564.7c0.1,0.1,0.2,0.1,0.3,0.2c0.4,0.7,0.4,1.5,0.3,2.5
		c0.1,1.2-0.1,2.4-0.4,3.7c-0.7,0.5-1.6,0.6-2.8,0.5c-0.9,0.6-1.9,0.8-2.7,0.6c-1.6-1.4-2-3-0.9-4.9c0.9-0.7,1.9-1.2,3.2-1.4
		C468.1,565.2,469.1,564.8,469.7,564.7z M453.2,569.2c0.6,0.5,0.7,1.8,0.4,3.7c-0.4,1.9-1.1,2.9-2.2,3.2c-2.2,0-3.3-0.1-3.5-0.4
		c0-0.2,0-0.6,0-1.2c-0.7-1.7-0.5-3,0.6-3.9c1.1-0.8,1.9-1.1,2.4-1.2c0.3,0,1-0.1,2-0.2C453.1,569.2,453.1,569.2,453.2,569.2z
		 M449.9,585.8c0.5,0.4,0,2.9-1.8,7.4c-1.7,4.6-3.7,9.7-6.3,15.2c-2.2,4.6-4,8.5-5.7,11.8c-1.8,3.1-2.7,5-3,5.3
		c-1.5,3-2.5,6-2.8,9.1c0.6,2.1,3.6,2.1,8.9,0c5.4-2.1,9.5-3.4,12.2-4.1c0.7-0.5,4.2-1.2,10.5-2.1c4.7-0.2,9.2,0.3,13.5,1.3
		c3.7,0.5,6.1,1.5,7.4,3.1c0.1,0.3-0.2,0.7-0.9,1c-2.2,0.2-5.8,0.5-10.8,0.9c-5,0.4-10.4,1.2-16.2,2.4c-6.3,1.6-12,3.2-17,4.9
		c-5,1.8-8.2,3-9.5,3.5c-5.9,2-11.3,4.1-16.3,6.4c-7.9,3.8-13.3,6.6-16.5,8.4c-3,1.7-4.7,2.5-5,2.2c-0.1-0.2-1.8-1.2-5.2-3
		c-2.5-1.2-3.6-2.5-3-4c1.2-1.3,4.5-3.2,9.7-5.8c5.3-2.5,10.8-5,16.7-7.4c9-2.8,13.9-4,14.8-3.6c1.1-0.4,2.6-2.5,4.4-6
		c0.4-3.2,1.2-6.8,2.6-10.9c1.5-3.5,3-7.1,4.4-11.1c2.5-5.1,4.9-9.9,7.4-14.1C444.8,589.6,447.4,586,449.9,585.8z M459.8,590.4
		c0.7-0.1,1.2,0.1,1.4,0.8c0.7,1.7,0.7,3.4-0.3,4.8c-1.9,1.9-3.3,2.8-4.1,2.7c-2,0.7-3.4,0.7-4.2-0.2c-0.3-2.4,0.3-4.4,1.6-5.9
		c0.6-1.7,2-2.4,4.3-2.4C458.9,590.3,459.3,590.3,459.8,590.4z M458.2,603.6c1.7,0.1,2.8,0.8,3.4,2.1c0.6,1.1,0.5,2.8-0.4,5.1
		c-0.4,0.4-1.7,0.5-3.8,0.4c-2,0.1-4,0.3-5.8,0.4c-1.9,0.1-3.1,0.1-3.7,0.1c-4.1-0.9-2.5-3.3,4.9-7
		C454.7,603.8,456.6,603.4,458.2,603.6z M458.8,615.3c0.4-0.1,0.9-0.1,1.3,0c2.6,0.2,4.3,1,5.3,2.2c2,1.5,2,3.1,0.2,4.8
		c-2,1-4.9,1.7-8.5,2c-4.3,1.2-8.5,2.2-12.6,2.7c-4.4,0.3-6.1-0.5-4.7-2.3c1.3-1.9,3.6-4,7-6.4c1.9-1.3,4.1-2.1,6.5-2.5
		C455.8,615.5,457.6,615.3,458.8,615.3z M456.2,642.1c4.2-0.9,9.4-1.9,15.3-2.9c6.1-1.1,11.3-1.7,15.6-1.9c1,0,1.8,0,2.5,0
		c4.3-0.1,6.6,2.5,7.1,8c-0.3,0.4-4.2,1-11.6,1.6c-7.5,0.6-15.7,1.8-24.7,3.5c-6.8,1.6-13,3.3-18.5,5.1c-5.5,1.9-9,3.1-10.7,3.8
		c-2.6,1-5.8,2.4-9.8,4.4c-3.8,2.1-7.5,3.8-10.9,5.1c-1.9,1.1-3.6,1.7-4.9,1.9c-1.7-0.5-3.5-1.4-5.5-2.7c-2-1.2-2.7-2.5-2-3.8
		c1.5-1.9,4-3.4,7.4-4.7c3.3-1.2,5.6-2.1,7-2.7c5.9-3,12.6-5.8,20.3-8.3C440.4,645.9,448.3,643.8,456.2,642.1z M413.4,597.4
		c0.1,0,0.2,0.1,0.2,0.2c0.7,2.5,0.4,5.9-0.8,10.1c-1.2,4.1-2.5,7.6-3.7,10.5c-2.7,6.8-5.9,13.3-9.6,19.7c-0.9,3-2.2,4.4-4.1,4.4
		c-0.8-0.3-0.8-1.7,0.2-4.1c0.8-2.5,2-5.2,3.2-8.1c1.8-4.8,2.8-7.9,3-9.4c1.8-7.2,4-12.8,6.6-17
		C410.9,599.6,412.6,597.5,413.4,597.4z M413.9,676c-1.3-0.8-2.6-1.7-3.9-2.4c-1.3-0.6-0.9-1.3,1.1-2.1c1.5-0.5,5.1-1.8,10.7-3.9
		c5.5-2.1,11.7-4.3,18.6-6.4c7.4-1.9,14.1-3.5,20.2-5.2c7.4-1.8,14.5-2.9,21.3-3.2c5.3-0.6,9.2-0.9,11.9-0.9
		c4.3-0.2,5.6,2.3,3.6,7.4c0.2,1.2-1.8,2.2-6.1,3c-3.2-0.3-7.2-0.5-12.1-0.6c-14.8,2-29,5.6-42.8,11.2c-8.3,3.4-13.3,5.5-15,6.1
		C418.6,679.4,416.2,678.4,413.9,676z M413.4,686.4c-1-0.4-1.6-0.8-1.8-1.4c-1.8-0.1-3.2-0.6-4.4-1.5c-1.1-0.9-2.4-1.4-3.9-1.5
		c-0.2-0.7-0.9-1.5-2.2-2c-1.3-0.6-2.1-1.7-2.3-3.3c-0.9-0.2-1.7-0.9-2.2-2.2s-1.5-2.2-3-2.3c0.3-1.2,1.3-1.7,3-1.5
		c0.3,1.6,1.4,3.1,3.3,4.5c2,1.3,3.1,2.3,3.4,3h1.6c0.1,0.7,0.8,1.3,2,2c1.3,0.7,2.4,1.1,3.2,1.1c0.1,0.7,0.8,1.2,2.1,1.9
		c1.3,0.7,2.4,1.1,3.1,1.1c0.2,0.8,1.1,1.6,2.6,2.1c1.6,0.6,2.5,1.3,2.7,2.5c0.8,0,0.8,0.7,0,2.2c-1.2-0.1-2.1-0.6-2.7-1.6
		c-0.5-0.8-1.3-1.4-2.6-1.5C415.1,687.2,414.6,686.6,413.4,686.4z M426.6,681.8c1.2-0.8,2.8-1.4,4.8-2.1c6.6-3.2,13.3-5.7,20-7.5
		c1.6-0.7,6.2-1.7,13.7-3.2c5-0.7,9.8-1.3,14-1.6c4.3-0.4,6.7-0.5,7-0.5c2.1-0.1,3.8-0.2,5.1-0.1c3.6-0.5,4.6,1.4,2.9,5.4
		c-0.2,0.1-1.8,0.2-5,0.3c-3,0-6.6,0.2-10.6,0.6c-6.6,0.9-10.9,1.8-13,2.6c-8.8,2-16.8,4.6-24.1,7.4c-6.2,2.8-10.3,4.1-12.5,4
		C425.8,686.1,425.1,684.4,426.6,681.8z M454.5,683.4c2.6-1.4,6.1-2.5,10.3-3.2c4.4-0.7,9-0.9,13.6-0.9c4.7-0.7,7.8-1.2,9.5-1.6
		c1.2-0.2,1.7,0.8,1.3,3.1c0.4,1.7-1.5,2.8-5.6,3.7c-5.2,0.8-10.9,1.6-17,2.5c-4.9,1.5-9,3-12,4.3c-2,0.7-3.2,1.2-4,1.7
		c-2.4,0.6-2.2-0.5,0.7-3.5C451.9,687.5,453,685.5,454.5,683.4z M480.1,689.5c2.8,0,4.1,0.8,4.3,2.2c0.2,1.6-1.8,3.1-6.1,4.8
		c-4.1,0.9-9.2,2-15.5,3.1c-2.4,0.9-5,1.5-7.7,1.9c-2.7,0.6-4.5-0.5-5.5-3.1c0.2-1.1,2.3-1.9,6.4-2.6c1.4-0.4,4.7-1.5,10-3.3
		C471.2,690.9,475.9,689.9,480.1,689.5z M386.8,611.4c1-0.4,3.1-1.3,6.3-2.7c3.3-1.4,5.6-2.2,7-2.4c0,0,0.1,0,0.2,0
		c0.8,1.3,0.6,3-0.9,5.1c-1.9,2.8-4.5,5-8,6.8c-3.3,1.7-6.2,3.1-8.4,4c-1.7,1.1-6.4,3.5-14.2,7c-3.9,1.5-7.2,2.8-10.2,3.6
		c-3.1,1-4.7,1.5-5,1.5c-1.8,0.3-4.3,0.2-7.5-0.2c-1.8-1.3-2.5-2.4-2-3.1c-0.7-0.2,0-0.3,2.1-0.6c2.3-0.2,4.4-0.7,6.4-1.2
		c7.3-2.7,13.2-5.5,17.6-8.5c0.8-0.5,2.9-1.9,6.2-4C379.9,614.7,383.3,613,386.8,611.4z M400.6,600.3c0.1,0.4-1.2,1.2-3.9,2.5
		c-3.4,2.3-7.7,4.6-12.9,7.1c-3.6,1.6-6.7,2.9-9.4,3.8c-2.6,1.1-4,1.6-4.2,1.7c-1.1,0.1-1.8,0.1-2.3,0.1c-0.8-0.8,1.7-2.5,7.5-5.2
		c5.3-2.9,10.7-5.5,16.2-7.9c4.4-1.4,7.3-2.1,8.6-2.1C400.4,600.3,400.5,600.3,400.6,600.3z M376.9,637.4c-2.8,1.3-4.9,2.3-6.1,2.9
		c-5.1,2-8,3-8.9,3.1c-1.5,0.8-2.8,0.8-3.7,0c-1.6-1.9-2.4-3.2-2.2-4.1c2.8-2.3,6.9-4.5,12.5-6.5c4.3-2.1,8.4-3.8,12.3-5.4
		c1-0.1,2.7-0.7,5.3-1.4c2.8-1.3,5-2,6.5-2.2c0.1,0,0.2,0,0.3,0c0.5,0.9,0.5,2.4-0.1,4.5c-0.3,0.5-1.4,1.4-3.2,2.4
		c-1.9,1-3.2,1.7-4.2,2.1C382.6,634.5,379.8,636,376.9,637.4z M389.1,637.3c0.8,0.8,0.9,2.4,0.1,5c0.4,1,0.4,2.1,0,3.2
		c-1.3,1-3.1,2-5.4,2.8c-2,1.5-4.2,2.7-6.4,3.5c-4.2,0.7-7.3-0.7-9.5-4.3c0-1,1.9-2.5,6-4.5C379.1,639.8,384.1,637.9,389.1,637.3z
		 M347.8,605c0.6-3.1,1.6-4.4,2.9-4.3c0.9,0,1.6,0.6,2.1,1.8c0.1,0.8-0.1,2.2-0.6,4.2c-0.6,2.1-1,3.5-1.3,4.1c-1,1.8-2,2.5-2.9,2.3
		c-0.4-0.7-0.6-1.8-0.6-3.5C347.4,607.9,347.5,606.4,347.8,605z M329.5,613.8c1.9-1.2,3-2,3.6-2.2c1.2-0.9,2.3-1.3,3.4-1.5
		c1.7-0.4,1.9,2.2,0.2,8.1c-0.6,1.2-1.8,1.6-3.7,1.1c-2.8-0.3-4.8-1.2-6.1-2.6C326.8,616.1,327.6,615.1,329.5,613.8z M337.9,640.7
		c1.2-1.7,2.6-2.7,4.1-3c0.4,0,0.8,0.1,1.2,0.3c2.9,2,5.6,4.3,8.2,7c0.7,0.4,3.1,2,7.5,4.7c4.2,2.8,8.4,5.5,12.5,8.3
		c4,2.7,6,4.2,5.8,4.5c-0.3,0.4-0.7,0.7-1.2,0.8c-2.6-1.3-6.6-4.1-11.9-8.7c-5.1-3.4-9.9-6.6-14.3-9.3c-3.1-2.3-5.4-3.5-6.7-3.6
		c-1.5,0.2-3,0.7-4.3,1.5c-1.4,0.8-2.2,1.1-2.4,1.1C336.2,643.6,336.7,642.4,337.9,640.7z M570.3,685.9c1.9,0.7,3.7,1.4,5.2,2.1
		c0.2,0.9,0.8,1.6,2,2.4c1,0.7,1.7,1.7,1.9,3c0.7,0.1,1.3,0.8,1.7,2c0.4,1.2,0.5,2.3,0.5,3.2c-0.6-0.7-1.2-1.4-2.2-2.1
		c-0.2-0.8-0.6-1.4-1.5-2c-0.9-0.5-1.4-1.4-1.5-2.6c-1.3-0.2-2.4-0.9-3.1-1.9c-0.8-1.2-1.5-1.9-2.3-2c-0.1-0.9-0.8-1.5-1.8-2
		c-1.1-0.4-1.7-1-1.9-1.7c-2.1-0.5-3.8-1-5.3-1.6c-0.2-1.1-1.5-1.7-3.7-1.9c-2.3-0.3-4-0.3-5.3-0.3c-0.1,0.6-0.6,1-1.5,1.1
		s-1.4,0.5-1.5,1.1c-1.8,0.8-3,1.6-3.7,2.3c-0.2,1-0.7,1.9-1.5,2.6c-0.9,0.8-1.4,0.7-1.6-0.3c0.7-0.2,1.1-0.8,1.3-1.9
		c0.3-1.1,0.9-1.8,1.8-1.9c0.7-2,1.5-4,2.2-6h9c0.2,0.9,0.7,1.3,1.5,1.5c0.1,0.7,0.8,1.1,1.9,1.2c1.1,0.1,1.7,0.4,1.9,1.1
		c1.5,0.5,3,1,4.5,1.4c0.2,0.8,0.7,1.4,1.6,1.8C569.7,685,570.2,685.4,570.3,685.9z M533.5,633.8c0.4,0.5,0.7,1.2,1.1,2
		c1.1,0.5,2.2,1.2,3.3,2.2c1,1.3,1.3,2.6,1.1,3.7c-0.2,1-1.2,1.2-3.2,0.6c-2.8-0.8-5.3-2-7.3-3.6c-2.5-3-2.5-4.7-0.2-5.2
		c0.8,0,1.8,0,2.7,0C532,633.5,532.8,633.5,533.5,633.8z M524.1,646.6c-0.3-1.1,0-1.9,1-2.4c0.4-0.2,0.8-0.2,1.1-0.2
		c3.1,0.3,5.9,2.2,8.7,5.3c2.5,3.1,3.6,6.4,3.1,10c-0.6,0.1-1.4,0-2.4-0.3c-0.9-0.8-2.1-2-3.4-3.5c-1.7-1-3.3-2-5.1-3.2
		C525.1,650.3,524.1,648.3,524.1,646.6z M521.8,658.8c0.7-1.4,1.4-2.3,2.2-2.5c2.3,0.5,4,1.3,5,2.2c1.8,1.8,3.4,3.5,4.9,5.3
		c2.6,3.8,2.7,6.9,0.1,9.2c-1.1,0.2-2.8-0.4-4.8-1.8c-5.7-3.9-8.6-6.9-8.6-8.9C520.6,661.5,521,660.3,521.8,658.8z M522.2,685.9
		c-1.7-0.9-2.7-2-2.8-3.4c-1.4-1-2-2.4-1.9-4c0.3-1.8,0.8-3.3,1.5-4.8c0.1-0.9,0.5-1.5,1-2c0.6-0.4,1.2-0.6,1.9-0.5
		c1.2,0,2.3,0.3,3.4,1.1c2.6,0.7,4.5,3.2,5.7,7.9c-0.1,1.9-0.8,3.2-1.8,3.8c-0.8,1.5-1.7,2.7-2.6,3.6
		C524.9,687.3,523.4,686.7,522.2,685.9z M516.5,685.9c2.1,0.2,3.9,1.6,5.4,4.2c1.6,2.7,1.2,4.9-1.1,6.7c-1.2,0.9-2.8,1.5-5,1.5
		c-1.3-0.9-1.9-2.3-1.7-4C513.9,688.7,514.7,685.9,516.5,685.9z"/>
</g>
<g>
	<g>
		<path fill="#FFFFFF" d="M347,350.9c-8,7.3-13.3,16.8-15.9,28.7c-3.1,18.3-0.1,35.8,9,52.3c9,16.5,21.5,29.2,37.4,38.3
			c10.9,5.9,21.7,8.4,32.7,7.8s20.8-4.3,29.3-10.9c3.2-2.5,6.1-5.5,8.6-8.8c6.5-23.7,7.8-48.4,4.1-73.7c-3.2-7.4-7.4-14.3-12.6-20.7
			c-8.6-10.4-19.1-18.3-31.7-23.4c-11-4.2-21.9-5.4-32.7-3.4C364.4,339,355,343.6,347,350.9z M338,381.3
			c2.6-10.4,7.4-18.9,14.6-25.3c7.2-6.4,15.5-10.5,25.2-12.2c9.6-1.7,19.3-0.7,29.1,3.1c11,4.6,20.3,11.5,27.8,20.7
			c7.5,9.2,12.7,19.5,15.5,31c2.9,11.6,3,23.1,0.2,34.7c-3,11.1-8.3,19.6-16,25.7c-7.6,6.1-16.4,9.6-26.3,10.3
			c-10,0.7-19.8-1.6-29.6-6.7c-14.4-8-25.4-19.5-33.4-34.3C337.1,413.4,334.8,397.7,338,381.3z"/>
		<path fill="#FFFFFF" d="M396.4,361.3c-0.3,0.4-0.4,0.6-0.2,0.3c10.2,3.6,18.5,8.2,25.2,13.8c5.8,5,9.7,11.4,11.7,19
			c1,4,1.5,7.5,1.7,10.5c0.1,3-0.3,6.2-1.2,9.5c-0.9,4-2.8,7.2-5.9,9.7c-3.1,2.5-7.3,3.6-12.9,3.3c-0.1,0.1-0.1,0.2-0.2,0.3
			c6,1.2,11,1.1,15.1-0.1c4.1-1.1,6.9-4.9,8.7-11.2c0.8-2.7,1.1-6,1-10.1c-0.1-4.1-0.9-8.2-2.5-12.4c-1.7-4.6-3.7-8.3-5.9-11.2
			c-2.2-2.8-5.6-6-9.8-9.3C414.4,368.6,406.2,364.6,396.4,361.3z"/>
		<path fill="#FFFFFF" d="M377.8,357.9c-0.2-0.1-0.4-0.1-0.6-0.2c-1.4-0.2-2.8-0.4-4.3-0.6l-0.1,0.6c1.3,0.6,2.7,1,4.1,1.6
			c0.2,0.1,0.3,0.2,0.5,0.3c-3.8,19-8.2,37.8-13,56.5c-1.8,2.2-2.9,4.8-3.5,7.8c-1.1,5-1.8,11.5-2,19.2c0,0.2,0.2,0.3,0.7,0.3
			c0.8-4.5,1.6-8.6,2.5-12.2c1-3.6,2.9-6.5,5.8-8.6c2.2-1.5,4.9-2.6,8-3.2c3.2-0.8,6.2-1.4,8.9-2c6.1-1.4,11.5-4.1,16.4-8
			c2.7-2,4.7-4.7,6.2-8.1c1.5-3.5,1.4-7.9-0.5-13.3c-2.2-5.7-5.3-10.9-9.5-15.6c-2.3-2.7-5.2-5.5-8.3-8.4c-3.2-2.9-5-4.6-5.3-4.8
			c-0.4-0.1-0.8-0.3-1.2-0.3c0.3-1.7,0.6-3.3,1-5c-1.6-0.6-3.2-1.2-4.7-1.8C378.6,354,378.1,355.9,377.8,357.9z M390.7,369.3
			c3.2,3.6,5.3,8.1,6.5,13.6c1,4.8,1.1,9,0.2,12.5c-0.8,3.5-1.8,6-3,7.3c-3.2,3.2-7.1,5-11.8,5.4c-3.9,0.3-7.8,1.3-11.8,3.2
			c4.1-16.3,7.9-32.7,11.1-49.2C385.6,364.4,388.5,366.7,390.7,369.3z"/>
		<path fill="#FFFFFF" d="M423.8,394.7c-1.1-2.2-2.5-4.5-4.2-7c0.5,1.9,0.7,3.7,0.7,5.4c-0.9-0.6-1.9-1.2-2.9-1.8
			c1,2.3,1.7,4.6,2.1,6.8c-1.4-1.5-2.9-3.2-4.6-4.8c0,0.7,0,1.3,0,2c-1.3-0.5-2.5-1-3.8-1.4c1.1,1.9,2,3.8,2.9,5.6
			c-0.8,0.1-1.6,0.2-2.4,0.3c1.5,1.4,2.8,2.8,4,4.1c-1.3,0.8-2.7,1.5-4.1,2.2c3.4,0.8,6.4,1.8,8.8,3c-0.9,1.9-2.2,3.6-3.7,5.3
			c0.5,0.2,1,0.3,1.5,0.5c1.5-1.6,2.7-3.3,3.6-5.1c2.5,0.8,4.7,1.6,6.5,2.4c-0.1-1.1-0.3-2.4-0.7-3.6c1.3-0.5,2.4-1,3.6-1.3
			c-0.4-0.6-0.8-1-1.2-1.5c0.9-1.1,1.7-2.1,2.5-3.1c-0.9-0.4-1.8-0.8-2.6-1.1c-0.2-0.7-0.2-1.3-0.4-2c-1,0.4-2.2,0.8-3.3,1.3
			c0.3-1.8,0.3-3.8,0-5.7C425.4,395.1,424.6,394.9,423.8,394.7z"/>
	</g>
</g>
</svg>
