<svg xmlns="http://www.w3.org/2000/svg" width="693.308" height="741.5" viewBox="0 0 693.308 741.5"><path fill="#202020" d="M676.5 461.7c-8.1 6.4-16.1 12.9-24.1 19.6-7.9 6.6-12.9 10.4-15.1 11.3-.5.3-2.3 2-5.3 4.8-3 2.9-5.9 5.1-8.9 6.7-2.8 1.6-4.3.8-4.6-2.4 0-.8-.6-7-1.7-18.9-1.2-11.9-2.5-25.4-4-40.9-1.3-12.7-2.4-24.2-3.3-34.5-1-10.2-1.7-17-2.3-20.1-.1-1-.7-7.1-1.7-18.2-1.1-11.2-2.3-23.6-3.6-37.2-1.4-13.7-2.5-24.6-3.4-32.8-1-8.2-2-16.5-2.9-24.7-1.3-11.9-2.5-23.8-3.5-35.8-.8-8.2-1.2-15.1-1.1-20.7.8-6.7 2.2-11 4.1-13 1.5-1.4 3.5 0 6.3 3.9 2.6 3.9 5.1 8.6 7.4 13.9 2.3 5.3 3.5 9.5 3.7 12.4.9.4 2 3.3 3.5 8.6 1.4 5.4 2.6 10.7 3.8 16 1.1 5.4 1.7 8.3 1.7 8.7 0 1.7.2 3.7.5 6 .2 1.7.5 3.7 1 6 1 5 2.1 10.2 3.5 15.5 1.6 5.7 3.7 10.9 6.3 15.6 2.5 4.8 4.2 6.9 5.3 6.5.1-.2.5-1.1.9-2.5.5-1.4 0-2.8-1.2-3.9-.8-.7-1.4-2.6-2-5.8-.6-3.2-1.2-6.9-1.8-11-.5-6.7-.9-13.4-1.5-20.4-.3-4.5-.6-9-1-13.6-1.7-10.2-3-19.1-4.1-26.5-1.2-7.5-1.8-11.7-1.9-12.4-.7-1.9-2.7-6.4-6-13.3s-6.4-13.6-9.5-20-4.8-9.9-5-10.3c0-8 .1-13.6.4-16.7.2-3 .1-4.6-.3-4.6-1.2.1-3.2 4.3-6 12.5s-6 18-9.5 29.4c-4.1 13.1-7.7 25.2-11 36.2-3.2 11-5 17.5-5.2 19.7-.2.3-.5 1.7-1.2 4.1-.7 2.4-1.2 3.7-1.4 4.3-.8.9-1.7 1.7-2.7 2.2s-2.1.9-3.1 1.1c-3-1.4-6-3.7-9.2-6.6-6.3-4-10.4-7-12.5-9-1.8-2-4.7-4-8.6-6.2-3.8-2.2-6.1-4.9-6.6-8.1-.3-.6-1.7-2.9-4.4-6.8-2.6-4-4.7-6.3-6.5-6.9-1.1 0-1.5.7-1.1 2.2.8 1.2 1.7 2.3 2.8 3.4 2.2 2.3 4.1 5.9 5.7 10.6 1.8 4.8 2.7 10 2.9 15.5 0 5.5-.9 12.1-2.9 19.8-.2.7-.4 1.5-.6 2.2-2.4 8.7-5 15.9-7.7 21.7-4 7.9-9.8 16.6-17.4 26-6.9 8.8-13.4 15.6-19.5 20.8l-1.5 1.2c-6.4 5.3-10 5.5-10.6.8-.4-.7-.7-1.5-.7-2.6.8-3.1 2.3-6.4 4.6-9.9 2.4-3.6 3.9-5.7 4.7-6.3 1-1 2.2-2.6 3.5-4.8 1.1-1.9 2.2-4.4 3.5-7.2 2.6-6.2 4.5-13.6 5.7-21.9.8-7.5 1-14.1.7-20-.1-1-.1-1.9-.2-2.8-.5-6.6-.2-9.8.8-9.7 2.1 1.4 3.9 2.9 5.3 4.5 2.2 1.5 3.5 2 4.2 1.5.8-1.5-.4-4.5-3.6-9.2-2.4-2.8-6.7-7.3-12.8-13.2-4.1-3.1-7.9-7.1-11.4-12.1-8.5-15-17.1-29.8-25.7-44.1-6.6-10.2-11.7-19.3-15.3-27.2-.6-1.1-1-2-1.5-2.5-.4-.5-.7-1.3-.9-2.6-.4-5.9.2-12.1 1.9-18.7 1.6-6.7 3.1-13 4.7-19 1.6-7.9 2.8-15.9 3.6-24 .8-8 1.9-15.4 3.2-22.3.3-.5 1.4.4 3.3 2.6 2 2.3 4.4 5 7.3 8.1 2.4 2.4 5.4 5.3 8.7 8.6 3.5 3.3 6 6.8 7.5 10.3 2.6 8.9 3.6 16.8 3.1 23.5.7 6.4 1.3 10.2 1.9 11.3 1.5 6.6 6.3 13.5 14.4 20.7 4 3.5 8.7 7.9 14.1 13 5.5 5.2 10.4 11.2 15 18.1 4.3 7.3 7.9 14.1 10.6 20.4 2.7 6.4 5.2 9.8 7.3 10.1 2.1-.7 3-4.6 2.8-11.7-.5-3.9-1.1-8-1.8-12.3-.6-1.4-2-5.3-4.4-11.7-2.4-6.3-3.2-10.1-2.2-11.4 1.9-.5 4.1 0 6.4 1.4 2.4 1.4 4.9 2.8 7.5 4.1 3 1.4 5.9 2.3 8.4 2.8 2.5.4 4 .4 4.6-.2.4-.8-1.3-3.3-5-7.6-3.7-4.2-8.8-9-15.1-14-7-4.6-13.6-9.4-20-14.2-7.6-6.5-12.1-12.5-13.4-18.1-.2-1.3-.4-4.2-.7-8.6-.3-4.5-.8-8.7-1.3-12.8-.5-4.1-1-6.4-1.7-6.7-.3-2.6-1.1-4.8-2.7-6.8-1.5-1.9-2.3-3.4-2.6-4.5-1.2-.8-2.2-1.5-3-2.3-2.5-.2-6.2-3.1-11-8.6-1.9-2.5-3.2-5-3.8-7.5-.7-2.5-2-5.4-3.9-8.7-1.5-2.1-3.5-3.7-5.6-4.8-2.2-1-3.8-2.9-4.9-5.3-1-4.4-2.6-8.7-4.6-12.9-2.6-3.5-4.8-6.9-6.6-10.4-1.1-3.3-1.4-6.4-1.1-9.2.2-2.8.8-4.9 1.6-6.1 3.2-4.5 4.7-7.7 4.7-9.7.5-1.3 0-1.9-1.3-1.9-1.4 0-4.8.1-10.2.5 0 0 .4.9 1.3 2.5.9 1.5 1.5 3.5 1.7 5.9-.1 2.9-.7 5.9-1.8 9-1 3-1.7 5.5-1.8 7.4-.7 10.3-2.4 21.1-5.1 32.2-2.6 13-5.3 26-8.1 38.9-2.7 12.8-4.3 25-5 36.5 0 .6 0 2.2-.3 4.7-.2 2.5-.7 5-1.6 7.4-.4 2-1.3 3.5-2.7 4.5-1.3.5-2.4.5-3.6 0-.6-.5-3.5-2.4-9-5.8-.8-.6-1.8-1.2-2.7-1.8-4.6-3-9.4-6.2-14.5-9.5-3.9-2.7-7.5-4.9-10.4-6.7-1.1-.7-1.9-1.2-2.6-1.7-1.3-.9-2.1-1.5-2.2-1.7-.6-1.1-3.4-3.3-8.5-6.5-5.1-3.3-10.9-7.2-17.2-11.8-7.2-5.7-12.8-11.3-16.9-16.5-2-2.5-4.9-5.9-8.8-10.3-3.9-4.5-7.7-8.3-11.3-11.5-3.7-3.2-6-4-7.2-2.4-.7 1.6 0 3.6 2.3 5.8 2.3 2.3 5 5 8.2 8.1 6.5 6.3 12.3 13.2 17.4 20.9 1.3 2.6 2.3 5.2 2.9 7.4 1 2 2 5.8 3 11.4.4 2.3.7 4.6.8 7.1.2 3.6.2 7.5-.2 11.5-1.7 12.9-6.6 22.2-14.9 28-8.2 5.8-18.2 8.9-29.7 9.5-4.6.3-9.2.6-13.6 1.1-4.6.4-7.2.3-7.9-.4-1.1-1.7-6-6.6-14.8-14.4-8.8-7.8-17.3-15.1-25.9-21.8-8.5-6.8-13-9.5-13.5-8 .1.6 1.1 2.8 3.1 6.4.9 2 2.5 4.5 5 7.4 2.4 2.1 4.8 3.8 6.9 5.3 2.2 1.4 3.5 2.2 3.9 2.4 1.6.7 3.7 3.8 6.5 9.1 2.7 5.4 5.8 11.9 9.4 19.7 6.6 13.7 13.2 27.7 19.7 42.2 6.6 14.5 12.4 29.1 17.3 44 2.3 7.5 4.3 15.1 6.1 22.6 2.9 13.1 5 26.3 6.3 39.5.2 6.5.2 12.9 0 19.2 1.1 15.8 1.2 30.3.2 43.6-1 13.4-3.3 27.5-7 42.5-.4 1.7-.7 2.8-1.1 3.2.1-.4.1-.7.1-.7-.2-.2-.6-.3-1.2-.5-.5 1.7-.5 2.3-.1 2 .2 0 .6-.2 1.2-.7-.4 2.3-1.1 5.7-2.1 10.3s-1.8 7.6-2.4 9.1c-.6 2.5-2.1 6.8-4.4 13-3 6.3-5.5 11.2-7.9 14.5-1.1 1.4-2.1 2.9-2.8 4.5-2.2 5.2-5 9.1-8.7 11.8-3.7 2.8-7.1 6-10.1 9.7-1.4 1.8-2.8 4-4.5 6.5-1.8 2.4-3.3 4.6-4.8 6.3-1.1.9-2.2 2-3.6 3.2-1.1 1-2.5 2-4.1 3-1.7.9-2.6 1.6-2.8 2-.9-.7-1-1.7-.3-2.9.3-.9 1.1-1.6 2.4-2.4 1.3-.6 2-1.1 2.4-1.3.9-.7 1.7-1.3 2.5-2.1 1.9-1.7 3.9-4.1 6-7.1 2.1-3.1 3.5-5.1 4.3-6.2.6-.5 2-1.8 4.3-3.7 2.5-1.9 5-4.2 7.5-6.7 2.5-3 4.2-5.7 5.3-8 .9-1.2 1.7-2.4 2.4-3.5 1.7-2.6 3.8-6.6 6.4-12.2s4.9-10.9 7-15.8c2.1-4.8 3.1-7.3 3.2-7.7-.1-.6.4-2.6 1.4-6.3 1-3.6 1.5-6.7 1.6-9.1.1-.2.3-.3.7-.2.7-3 1-5.3 1-7.2-.4-1.1-1-1.8-2-2.1-.8-.2-2.1-1.4-3.8-3.5-3.8-5.2-7.5-10.7-11.3-16.6-3.9-5.9-5.9-9.1-6.4-9.6-.3-.2-.9-1-2-2.5-1.5-1.8-3.6-4.7-6.5-8.6-5.2-7.1-11.1-15.5-17.9-25.3-3.7-6.1-7.3-12.1-10.8-17.9-6-7.8-10.9-14.1-14.7-18.7-2.3-3.5-3.6-5.7-3.7-6.5-2-5.6-2.6-9-2.1-10.2.5-1.1 1.6-2.5 3.4-4.1 2-2.2 3.6-5.5 5-9.6.1-.4.2-.9.4-1.4.3-1 .4-2 .7-3 .6-3.9.9-7.5.7-10.7-.1-4-1.8-7-4.9-8.8-.8-1-1.9-1.7-3.2-2.2-1 0-2.2-.5-3.9-1.8-1.5-1.2-2.5-4.2-2.8-8.8-.1-.7-.5-4.9-1.3-12.9-.7-8-1.8-17.4-3-28-1.4-11.1-3-21.1-4.8-29.9s-3-13.9-3.8-15.2c-1.4-2.3-2.1-1-2.4 3.5-.1 3-.1 6.7.1 11.3.3 2.2.6 3.9 1.2 5.1.6 5.3.6 10.5.1 15.4 0 5.9.4 9.4 1 10.5 1 3.7 1.9 10.3 2.6 19.9.9 5.9 1.5 11.6 2 17.1.5 5.3.3 9.3-.7 12-.8 1.3-1.9 2.2-3.1 2.5-1.2.3-2.2.8-3.1 1.6-.7 1.1-1.1 3-1.1 5.9v8.8c.1 2.1-.1 3.7-.7 4.7-.2.1-.3.3-.4.5-.3-.1-.6-.2-.9-.5-.9-.5-1.9-1.6-3-3.2-2.3-2.2-5.3-4.6-9-7.3-4.8-2.9-12.8-11-24-24.2-3.7-4.3-8-8.5-12.6-12.8-6-4.5-11.9-9.2-17.9-14-2-1.8-4-3.9-5.7-6.2-.9-2.7-1.9-4.9-3.2-6.9-2.2-1.3-4.1-2.5-5.8-3.9-6.3-8.7-12-15.8-17.3-21.4-5.2-5.5-8.1-9-8.9-10.4-.8-1.1-2.6-2.4-5.6-3.9-1.1-.5-2.2-.8-3.2-.8-1.1.1-1.2.7-.3 1.6 1.5 1.4 4.7 6 9.7 13.7 3.3 3.4 7 7.4 10.9 12 2.6 5.1 5.3 10.6 8.1 16.5 5.2 8.5 10.5 17.2 15.7 26.2 5.9 11.1 11.9 24.4 18 39.7.7 1.7 1.4 3.5 2.1 5.3.5 1.5 1.1 3 1.6 4.4 4.6 12.1 8.7 24.6 12.2 37.2 4.6 16.1 7.6 31 9.1 44.7.4 3 .9 7.3 1.5 13.1.1 1.9.3 3.9.4 5.9.2 4.2.2 8.6.1 13.3-.6 11.1-1.9 21.5-3.9 31.5-2.1 10-4 18-6 24-1 3.4-2.2 7.2-3.5 11.2-1.2 4.1-2.6 7.7-4.1 10.6-4.3 7.4-9 14.4-14.3 21-5.2 6.5-8.9 10.5-10.9 12.1-.8.7-3.7 3.9-8.5 9.3-5 5.4-10.9 11.3-17.7 17.5-6.3 5.4-12.3 9.9-17.9 13.3-5.7 3.6-9.4 5.9-11.4 6.9-1.6 1.1-4.5 3.2-8.5 6.7-4.1 3.4-5.6 5.6-4.5 6.5 2 .1 6.1-1.6 12.5-5.5 6.3-3.9 13.7-8 22-12.3 8.4-4.3 16.8-7.2 25-8.4.5 0 1.8-.2 3.7-.3 4.3-.5 10.6-1.2 19-2.4 8.2-1.2 16.6-2.1 25.2-2.7 7.5-.8 13.8-1.1 19-1 2.3.1 4.4.4 6.6.9s3.5 1.5 4.2 2.8c.5 2.6.5 5.6-.3 9.2-.7 3.5-1.2 5.9-1.4 7.2.3 6.5.2 11.5-.1 15-.3.6-1.5 1.4-3.2 2.3-1.7 1-3.2 2.1-4.5 3.3-2.3 3.9-3.4 6.4-3.5 7.4-2.5.8-4.6 1.1-6.5 1.1-3.3 1.7-5 3.6-5.5 5.8-.5 2.1-1.1 3.7-2.2 4.6-3.1 1.9-5.9 3-8.3 3.5-2.5.4-4.7 1.3-6.5 2.4-2.5 2.1-4.3 4.6-5.4 7.6-.7 2-1.5 3.9-2.4 5.5-.6 1.2-1.5 2.2-2.6 3.2-4.1 1.3-7.9 2.9-11.3 4.6-1.8 1.7-3.3 4.1-4.5 7.6-1.2 3.3-1.8 6.7-1.8 10.1.1 4 1.1 7.4 3 10.2 1.9 2.8 3.8 5.2 5.5 7.3 1.4 1.9 2.2 3.7 2.6 5.2 1 2.6.4 5.5-1.9 8.9-2.9 2.6-7 4.8-12.4 6.9-5.5 2-11.3 4.5-17.7 7.4-14.3 7.5-27.5 14.2-39.5 19.9-9.7 4.3-19.8 6.6-30.4 7-4.6.4-8.5-1.2-11.8-4.8-3.5-6.5-3.4-11.7.3-15.4 3.8-3.8 8.2-5.7 13.3-5.9 5.2-.3 7.9 1.6 8.3 5.6-.2 3.4-1.5 5.1-3.6 5.3-2.3.1-4.3-.5-6.3-1.9-.7-.6-1.2-1.5-1.4-2.6-.1-1.3-.3-2.3-.6-3-.3-.8-.6-.7-1 .3-.4 1.3-.7 3.1-1 5.4-.4 2.4.1 4.5 1.3 6.2 2 2.3 4.8 4 8.5 5.1 4.3.7 7.7-.2 10.2-2.8 2.4-3.7 3.6-6.5 3.7-8.2.7-2.4 1.2-5 1.2-8.1-1.8-7-7.6-10.9-17.5-11.8-10.6.2-19.3 4.1-25.8 11.6-2 2.1-3.6 4.4-4.8 6.9-.7 1.1-1.3 3.1-2.1 5.9-.7 3-1 5.9-.7 8.8 1 10.2 4.7 17.1 11 20.9 2.4.6 5.2 1.2 8.4 1.9l636.2-.3c4.1-.5 6.2-.8 6.4-1 2.1-.4 4-2.7 5.6-6.9.5-3 .3-6.4-.6-10-.3-3.9-1.7-6.9-4.1-9.1-2-.9-4.9-1.1-8.4-.6-.7.1-1.9 1.1-3.4 3.1-.8.7-.7 1.7.4 3 1.4.7 2.4 1.2 3.3 1.6.6 2.2-1.3 3.4-5.9 3.6-4.5.2-8.2-.8-11.2-3-3.1-2.4-5.5-4.3-7.2-5.7-1.7-1.3-3.1-2.9-4-4.8-.9-2.5-1.6-4.8-2.2-6.7-1.4-2.8-3-4-4.9-3.3-.6.6-2 2.3-3.9 5.1-4.2 4.6-9.6 8.6-16 11.9-6.3 3.4-12.2 2.9-17.6-1.7-3.2-2.8-5-5.6-5.2-8.6.8-3.4 3.7-4.3 8.8-2.6 1.2.9 2.8 2.4 4.8 4.4 3.3 2.5 5.3 3.4 6 2.8-.5-1.6-2-4.6-4.5-9.2-2.7-6.7-6.8-12.9-12.4-18.4-6-5.2-12.3-8.9-18.6-10.8-4.2-.5-8.7-1.2-13.3-2.1-.2 0-.4 0-.6-.1-.1-.6 0-2.9.5-6.8s.7-6.3.8-7.5c.4-7.3-.4-14.4-2.6-21.1-1.5-3.1-2.8-5.6-3.8-7.4-1.2-1.8-.4-2.7 2.2-2.8 2.4 0 6.1.3 11.1.9 5.1.6 10.5.8 16.3.6 7.6-.5 14-1.7 19.2-3.5 5.2-1.9 8.6-3.2 10.4-3.9 7.4-2.3 14.9-6.1 22.3-11.3 7.4-5.3 13.5-11 18.2-17.1 1.6-2.5 3.2-4.9 4.5-7.3 1.4-2.5 2.5-4.9 3.5-7.2 1.4-2.3 2.6-5.8 3.9-10.8 1.2-4.9 1.5-12 .6-21.3 0-.5.5-.8 1.5-.6s1.7.2 2-.2c1.3-2.5-.1-5.2-4.1-8.1-4.6-3.8-9.7-7.6-15.4-11.4-5.6-3.7-8.6-6.7-9.1-9.1 0-2.9.7-4.7 2-5.6 1.1-.9 3.6-2.8 7.5-5.9 5.9-5 12.6-10.8 20.4-17.4 7.7-6.6 14.8-12.7 21.1-18.2 6.2-5.7 10.1-9.4 11.5-11.4 1.8-3.1 2.3-5 1.3-5.6-2.8 0-8.2 3.2-16.3 9.6zM371.5 124c1.2.9 3.1 2.2 5.6 4 4.5 3.2 9.3 6.5 14.3 10.1 5 3.5 8.5 5.9 10.6 7.2 1.1.7 2.1 1.3 3.2 1.9 2 1.2 3.9 2.3 5.6 3.2 2.6 1.5 4.1 2.2 4.5 2.2 1.5.4 2.5 1.6 3.1 3.8.7 2.1 1 4.3.9 6.7.1 4.4-.5 7.4-1.7 9.1-2.2.7-3.7.3-4.5-1.4-.9-1.5-3-4.4-6.5-8.7-.4-.6-.9-1.2-1.4-1.7-2.6-3.2-4.6-5-5.6-5.4-.6-1.2-2.9-3.6-6.9-7.3-4.1-3.7-6.6-5.9-7.5-6.4-.3-.3-1.9-1.8-4.9-4.8-3.1-3.1-5.9-6.1-8.4-9-1.3-1.6-2.1-2.8-2.5-3.5-.3-.7-.2-1.1.4-1.1.1 0 .8.4 1.7 1.1zm54.3 47.5c1.1-2.2 1.8-3.5 2.2-3.9h.1c.3.9 2 3.4 5 7.6 2 2.7 4.1 5.9 6.1 9.7 2.4 3.3 4.7 7.5 7 12.4 3.4 6.5 4.7 10.5 4.2 12-.2.2-.5.2-1 0-1.8-1.8-4.6-4.7-8.3-8.8-3.6-4.2-5.9-6.7-6.9-7.6-4.6-3.3-7.9-8-9.6-14-.3-2.8.1-5.3 1.2-7.4zm-10.1 103.2c4.2-5 7.1-8 8.4-8.7h.3c.4.4 1.7 2.4 4.1 5.9 2.3 3.5 5.3 8 9 13.2 5.3 7 10.2 14.4 14.7 22.3 1.5 2.9 3 6.4 4.6 10.7 1.5 4.3 2.6 8 3.1 11.3.4 2.1.7 4.2.9 6.1.1 2 0 3.1-.5 3.4-2.2.1-7.5-4-15.7-12-5.9-6.6-12-13.3-18.2-20-5.5-4-10.3-7.4-14.5-10-5.3-5.4-6.5-10.5-3.4-15.3 2.1-2.5 4.4-4.7 7.2-6.9zM373.8 218c5.1 3.8 10.9 7.5 17.4 11.2 3.2 1.7 5.1 4.9 5.9 9.7-.2 1-.8 2.7-1.9 4.8-1 2.2-1.6 5.1-1.8 8.6.5 5 1.4 10.1 2.7 15.3.6 2.7 1.1 5 1.5 7.1-.4 3.4-.8 5.4-1.3 5.9-.9 1-3-.5-6.2-4.3-2-1.9-5.5-5-10.6-9.4-5.1-4.5-10.6-9.2-16.3-14-4.7-4.2-8.8-7.6-12.1-10.5-3.4-3-5.3-4.6-5.7-5-1.3-1.3-5-5-11.3-11-6.2-6.1-13.3-12.7-21.3-19.7-6.9-5.7-12.9-10.8-18.3-15.1-5.4-4.3-8.2-7.2-8.6-8.6 0-.5.5-.6 1.3-.6 2.9.2 7.9 1.1 15 2.7 8.7 1.5 16.7 3.5 24.2 6 11.4 4.9 21.9 10.4 31.5 16.4 5.5 3.2 10.7 6.8 15.9 10.5zm210.3 21.1c1-5 2.1-8 3.4-9.2.1 0 .2-.1.4-.1 1.1.5 1.9 3.8 2.5 10 .5 6.2.9 12.6 1.1 19.1.4 6.5.6 10.5 1 11.7.3.8.5 2 .9 3.8.6 3.2 1.3 8.5 2.1 15.7 1.5 11 2.5 21.8 3.3 32.6.7 10.9.6 17-.7 18.6-2.2.8-4.6-1.4-7.2-6.7-2.7-5.3-5-11.4-7-18-1.9-6.7-2.9-11.7-3-14.7-.4-.8-1.7-4.3-3.8-10.5-2-6.1-3.1-10.6-3.5-13.3-.1-1-.2-2.3-.1-3.7 0-1.1.2-2.3.4-3.7 1.6-4.8 3.7-10.1 6.1-15.8 1.8-5.6 3.2-10.9 4.1-15.8zm-14.9 50.5c.2-1.2.8-2 2-2.5.2.1.4.2.7.3 1.1 1.5 2.5 4.7 3.9 9.9 1.3 5 2.2 8.1 2.5 9.1.2 1.9-.3 2.8-1.3 2.7-1.7-1.2-3.5-3.2-5.5-6.1-1.9-2.9-3.1-6.1-3.6-9.7.1-1.9.6-3.1 1.3-3.7zM550 260.7c4.7 2.2 8.9 5.1 12.6 8.7 1.4 1.8 2.2 3.4 2.5 5 .3.7.3 1.5.2 2.2.3 2-.3 4.2-1.9 6.5-1.9 1-3.2 1.2-3.6.6-.6-.3-2.2-2.8-4.7-7.4-.4-.7-.8-1.3-1.1-1.9-2-2.9-3.9-5.7-5.7-8.5-1.3-2.3-2.4-4.1-3.4-5.5-1-.9-1.6-1.5-1.7-1.7.4-1 .8-1.4 1.3-1.4.8.3 2.7 1.4 5.5 3.4zM512 367c4.5-.4 8.4-.2 11.7.7 2.5.7 5.3 1.6 8.4 2.6 3 .9 3.5 3.3 1.4 7.3-.8.8-2 1.3-3.4 1.7-5.7 1.4-9.1 3.8-10.1 7-.1 1-.3 2.8-.5 5.1-.4 2-.8 3.2-1.5 3.8-.8.2-1.9-.8-3-2.7-1.6-1.6-3-3-4.1-4.4-.7-.8-1.9-2-3.8-3.5-2-1.5-3.5-2.5-4.5-3.2-1-.8-3-2.7-5.9-5.6-2.8-2.9-4.6-4.6-5-5-.6-.2-1.8-1.5-3.5-3.8-1.8-2.3-2.5-3.4-2.3-3.6 3.2 1.2 7.5 2 13.3 2.7 5.7.6 9.9.9 12.8.9zm33.5 11.3c1.3.3 3 1.6 5.1 4.3 2.4 2.5 4.9 5.1 7.4 8.2 2.5 3.1 4.6 5.7 6.2 7.9.9 1.2 2.3 3.6 4.3 7.2 2 3.7 3.7 8 5.1 13.2 2.7 10.2 3.2 19 1.6 26.5-.7 3.2-2.1 5.3-4.2 6.2-2.1.1-4.8-1.7-7.8-5.4-3.1-2.4-5.9-5-8.3-7.8-1.8-2.7-2.6-5.1-2.4-7.3.7-1.1 1.8-1.9 3.1-2.6.8-1 .5-2.2-.6-3.8-.7-.5-1.5-.9-2.5-1.4-.7-.6-1.9-1.7-3.5-3.4-1.6-1.8-2.6-3.6-3.1-5.4 0-1.7.4-3.1 1.3-4.1.9-1.2 1.2-2 .8-2.5-.7-.8-1.5-.7-2.6 0-1.3 1.8-2.4 3.3-3.5 4.5-1.3.3-1.9-.5-1.9-2.2.1-1 1.3-1.8 3.5-2.4 2.1-1.6 4-3.4 5.7-5.7 1.1-1.4 1.7-3.8 1.6-7.4-.6-3.8-1.5-6.5-2.8-8.2-1.3-.6-2.6-1.4-4-2.3-1-1.8-1.2-3.3-.7-4.3.7-1.1 1.3-1.7 2.2-1.8zm57.5 11.8c.3 0 .5.9.5 2.6.2.6.9 5.9 1.8 16 1.1 10.2 2.2 22.2 3.3 35.9 1.2 13.8 2.3 26.3 3.2 37.7.8 11.2 1.3 18.3 1.4 21-4.6-.5-8.8-2.5-12.7-6-3.9-3.6-7.1-5.6-9.8-6-.7-1.6-3.6-3.2-8.4-4.7-4.8-1.6-7.5-2.9-8.3-3.8-1-.7-2-1.4-3-2.2.7-1 3.9 0 9.5 3 5.7 3 9.8 4.7 12.4 5.3.2 2.5 1.6 2.7 3.9.6s4.2-4.6 5.4-7.7c1.3-3.1.4-4.7-2.6-4.9-.2-2.8-2.1-5-5.6-7-3.5-1.9-7-4.2-10.5-6.7-3.5-2.6-5.4-6.1-5.7-10.6 2.2-.4 4.8-3.4 7.8-9.2 3-5.6 5.8-11.7 8-18.3 2.4-6.5 3.6-11.3 3.8-14.2.2-1 1.1-4.5 2.5-10.5 1.3-6.1 2.4-9.5 3.1-10.3zm-448.7-131c1.3.4 2.9 1.8 4.9 4.1 2 2.2 3.4 3.5 4.1 3.8.6.8 2.9 3 6.9 6.6 4 3.7 6.5 5.8 7.5 6.3.3.8 1.7 2.4 4.4 4.6 2.6 2.2 4.3 3.4 5.3 3.8 0 .1.1.1.2.3.7.8 2.3 2.3 5 4.4.2.1.3.3.6.5 3.4 2.6 5.7 5.1 7 7.6 1.2 1.7 1.8 4.3 1.8 7.6 0 1.4-.4 2.7-1.2 4.2-.6.5-1.5.5-2.4.2-2.2-1-3.4-2.3-3.5-3.7-.9-1.3-3.6-4.8-8-10.3-2-2.6-3.7-4.6-5.1-6.1-1.6-1.7-2.7-2.9-3.5-3.3-.1-.2-.3-.6-.6-1.1-1-1.3-2.9-3.5-5.6-6.5-3.7-4-5.9-6.2-6.5-6.8-.5-.8-2.5-3.4-6-7.7-3.5-4.3-5.5-6.8-6-7.5 0-.8.2-1.2.7-1zm62.3 73c-.9-3.4-1.1-5.5-.4-6.4.6-1 1-1.3 1.2-1.2.6.6 2 2.6 4.4 5.9 2.3 3.4 3.6 5.5 4 6.2.7 1 3.4 4.7 7.9 11.2 4.6 6.6 7.2 10.6 7.9 12.3.7.6 2.5 2.9 5.2 7 2.6 4.1 4.1 6.8 4.5 8.2-1.8-.2-4.5-2.6-8-6.9-3.4-4.3-7.1-9.1-11.1-14.6-2.6-3.7-5.4-7.2-8.1-10.4-2.7-2.2-4.9-4.3-6.5-6-.9-2.3-1.3-4.1-1-5.3zm-33 260.7c.8-1.7 2-3.4 3.5-4.8.8-1.3 1.6-1.9 2.1-1.9.8-.1.9 2.4.1 7.5-.2 1.1-1 2.1-2.4 2.7-2.6.4-3.7-.7-3.3-3.5zm18.1-9.1c-.4-3.4-.5-7.8-.5-13.1.1-5.3.6-10.3 1.5-14.9 0-2.9.4-5.2 1.1-7 1-1 3.2-1.4 6.6-1.3 2.1.1 4.3.3 6.5.7 5 .3 9.3 1.8 12.7 4.3 1.1 1.5 2.2 4.9 3.2 10 1 5.2 1.8 8.7 2 10.5 1 7.1 1.8 14.8 2.1 22.9.8 3 .5 5.2-.6 6.7-.5.2-1.7-.6-3.6-2.1-1.9-1.6-4.1-3.2-6.6-4.8-2.8-1.9-7-3.9-12.7-6.4-3.2-.9-6.2-1.8-9.1-2.6-1.6-1-2.5-1.9-2.6-2.9zm87.9-58.5c1 .5 1 1.2.2 2.3-.6 1.8-1.2 3.9-2.1 6.6-2.5 4-5.3 6-8.6 6-1.3-.6-3.4-1.9-6.3-4.2-4.2-2-6.6-3.2-7.2-3.3 1-1 4.5-2.5 10.3-4.3 5.9-1.9 10.4-3 13.7-3.1zm13-1.5c.1 1.1-.7 3.1-2.5 5.9-1 1.1-1.7 2.4-2 4-.5.7-2 3.1-4.5 7.2-2.7 4.1-4.2 6.3-4.7 6.4 0 0-.5 1.4-1.5 4.1-.9 2.8-2 5.4-3.4 8-2.6 4.3-4.4 4.8-5.6 1.8-.1-1.8.7-3.9 2.5-6.4 1.9-2.6 3.2-4.7 4.2-6.4 1.3-3.2 2.5-6.4 3.4-9.5 1.6-3.5 2.7-5.4 3.2-5.9 3.1-6.6 6.4-10.2 9.9-10.8.8.3 1.2.8 1 1.6zm14.3-4.2c.2-.2-.2 1.3-1.3 4.9-1.5 5.5-4.2 11.1-8.3 16.8-4.1 5.6-7.4 10.6-9.9 15.1-1.2 3.3-2.3 6.4-3.5 9.4-3 3-4.8 4.1-5.7 3.5-1.8-.1-2.1-2.1-.7-6 1.4-3.9 3.6-8.6 6.6-14.1 3.5-7.1 6.8-13.5 10.2-19.4 3.1-5 5.3-8 6.6-9 2.2-1 4.1-1.4 5.5-1.2h.5zm-.8 10.3c1.1-2.4 2.8-4.9 5-7.5 2.4-2.2 4.3-3.2 5.5-3.2.2 0 .3 0 .4.1.6.4.4 1.8-.6 4.2-2.3 3.9-5.3 9.2-8.9 15.9-4.4 10.2-8.3 19.1-11.6 26.6-.8 2.3-1.5 4.1-2 5.5-1 1.8-2.3 2.8-3.8 3.2-1.5.3-2.7-.8-3.6-3.2.6-1 3.1-5.6 7.6-14 3-6.2 5.6-12.2 7.9-18 2.4-5.7 3.7-9 4.1-9.6zm-44.9 29.6c-1.1.5-3.1-.7-6.1-3.8s-4-6.8-3-10.9c.3-.7.7-1 1.3-1.1 2.3.6 4.5 1.6 6.7 2.8 1.4.5 3 2 4.8 4.5 1.1 3-.1 5.8-3.7 8.5zm-7 29.9c.4-1.6 1.2-3.5 2.7-5.4 1.7-3.2 3.1-5.2 4.2-6 .5-.1.7 1.4.5 4.5-.6 2.3-1.4 3.9-2.5 4.8-.9 1.4-2 2.5-3.2 3.2-.4 0-.8-.1-1.3-.2-.5.1-.6-.2-.4-.9zm15-4.8c.9-.1 1.4.2 1.8.5.8 1.6.4 4-1.3 7.3-1.6 3.4-2.9 4.9-3.6 4.5-.7-.5-1.5-1-2.3-1.2-1.2-.6-1.4-1.7-.7-3.3 1.1-.9 2.1-3 3.3-6.2.4-1 1.3-1.5 2.8-1.6zm32.9-18.3c3-6.6 6.1-13.4 9.5-20.3 3.2-7.1 6.8-13.8 10.8-20.3 2.1-3.5 4-6.2 5.5-7.9.8-.6 1.5-.9 2-.9 2 0 .5 3.8-4.3 11.5-1.3 1.7-3.7 6.6-7.2 14.6-2.9 6.5-6 13.6-9.5 21.2-.9 2.6-1.9 5.2-3 7.6-.2 1-.8 2.6-1.6 4.4-1.8 2.4-3.6 3.8-5.4 4.2-1.8.4-2.3-1-1.5-4.3 1.3-3.3 2.9-6.6 4.7-9.8zm-23.2 23.5c.7-.1 1.5.3 2.5 1.2 1 2.1 1.4 3.5 1.2 4.3-.5 2.1-1.7 4.2-3.7 6.1-1.9 2-3.8 2.2-5.9.4-.9-1.1-.9-2.4-.1-3.6.7-1.8 1.9-3.7 3.4-5.4 1.6-1.9 2.4-2.9 2.6-3zm30.2-2.4c-2.7-.9-3.7-2.4-2.7-4.6 1.1-2.1 2.5-5.1 4.3-9 2.1-5.3 5.1-12 9-20.3.7-1.4 2.2-4.3 4.4-8.9 2.4-4.6 4.8-9.2 7.1-14.1 1.7-3.3 3.2-6.3 4.7-8.8s2.5-3.9 3.1-4c.1 0 .1 0 .1.1 1 2.8-.5 7.9-4.5 15.3s-6.7 12.4-8.2 14.9c-.4.8-1.6 3.9-3.6 9.3s-4.2 11.1-6.7 17.1c-1.5 3.5-3 6.6-4.2 9.2-1.3 2.6-2.3 3.8-2.8 3.8zm-166.8 30.2c2-1.4 3.7-2.3 5-2.8 3.4-1.4 6.8-2 10.5-1.8 4.8.1 8.9 1.4 12.4 3.8 4.2 3.1 7.1 5.5 8.7 7l5.2 5.2c1.2.8 2.4 1.8 3.6 2.8 1.1 1 1.5 1.9 1 2.6 0 1.3-1.3 1.9-3.6 1.7-.9-.5-2.5-1.8-5-4.1-2.5-2.2-5.2-4.6-8-6.9-3.7-2.7-5.9-4.2-6.7-4.3-.8.1-1.1 1.3-1 3.4-.2 2.6-.2 4.2.3 4.9 1.1 1.1 1.8 4 2 8.8.2 4.8-1.3 8.3-4.5 10.5-.5 0-1.4-1-2.4-2.9-.7-2.2-1.6-3.4-2.6-3.6-1 .8-2 2.4-3.1 4.8-.9 1.7-2.5 4.4-5 8.2-1.2 2.2-2.4 3.6-3.8 3.9-2.2-.6-4.7-1.4-7.4-2.2-4.9.5-9.2-.1-12.9-1.8-2.4-1.9-3.8-4.5-4.1-7.9-.3-3.4 1-6.5 3.9-9.5 1.6-1.4 4.1-2.6 7.3-3.6 3.1-.8 6.2-1.5 9.2-2.2 3.3-.2 5.5-.6 6.8-1.2.8-1.2.6-2-.8-2.4-1.3-.5-2.8-1.1-4.5-1.7-1.9-1.3-2.9-2.5-3.2-3.8-.3-1.9.6-3.6 2.7-4.9zm5.3 59.2c-6.4 3.6-13.3 7.5-20.9 11.8-5.1 3.4-9.9 6.2-14.3 8.4-3.4 1.4-5.9 2.2-7.2 2.6-1.4 0-1-.5 1.2-1.6 2.3-1.2 5.1-2.6 8.4-4.4 6.2-3.3 12.7-6.9 19.5-10.6 6.9-3.9 13.1-7.6 18.8-11.2 5.1-3.2 10.6-6.4 16.5-9.7 6-3.3 11.4-6.5 16.3-9.7 13.9-10 23.6-15.6 29-16.6.7 0 1.2.1 1.7.4.7.9 3.5 2.7 8.4 5.7 5.5 3.2 11.5 6.5 18 10.2 5.1 2.5 9.3 4.7 12.8 6.5s5.1 2.8 5 3.2c-1.1.6-2.2 1-3.6 1.1-1.4 0-2.8-.5-3.9-1.7-1.2-1.1-2.4-2.1-3.5-2.7-6.5-2.4-13-5.6-19.6-9.7-6.8-5.7-11.9-8.9-15.4-9.9-3.2-.1-6.4 1.5-9.6 4.7-2.9 1.9-6.6 3.9-11.1 6-5.8 2.8-15 8.2-27.7 16.3-6.4 3.8-12.7 7.5-18.8 10.9zm1.7 23.8c-.1-.5.5-.9 1.8-1.3 1.5-.7 3-1.7 4.5-2.7 6.2-4.2 13-8 20.1-11.4 3.7-1.9 6.2-3 7.6-3.1 2.1.5 2.5 1.1 1.1 2-1.1.5-2.2.9-3.3 1.1-.9.5-2 1.3-3.3 2.2-3.4 2.1-6 3.8-8 5.2-1.9 1.2-5.3 3.2-10.3 5.9-3.8 2.2-6.3 3.5-7.6 3.6-1.6-.3-2.4-.7-2.6-1.5zm159.8-87.4c-2.4-.4-1.7-3.7 2.3-9.5 1.5-3.8 2.3-6.7 2.2-8.7.2-1.2 2-6.3 5.5-15.2 4.6-9.6 9.5-20.2 14.8-31.6 3.2-7.7 6.1-14.2 8.5-19.8 2.5-5.6 3.9-8.4 4.2-8.5.1.1.1.1.1.2.2 3-.6 8-2.3 15.1-1.7 6.9-3.5 14.6-5.5 23.1-2.1 10.9-3.8 20.5-5.2 29-2.1 8-3.5 12.1-4.3 12.3-.5.3-2.3 1.6-5.2 3.8-2.9 2.2-4.7 3.4-5.3 3.8-.5.8-2.1 1.9-5 3.2-2.8 1.4-4.5 2.4-4.8 2.8zm-9.5-11.6c.7-.1 1.5.4 2.3 1.5 1.3 1.9 1.6 3.9.9 6.1-.7 1.2-2.3 2.5-4.8 4-2.5 1.4-3.6.8-3.1-1.9.7-2.9 1.2-4.8 1.3-5.6.6-2.1 1.7-3.4 3.4-4.1zm-7.8-5.1c.1 1.7.4 3 1 4 .3.9-.6 2.7-2.9 5.6-.8 1.6-1.6 2.7-2.5 3.3-2.8 1.4-4-.6-3.8-6.3.3-.7.9-1.3 1.7-1.9.6-1.5 1.1-2.7 1.5-3.5.8-1.3 1.8-2 2.8-2.2.4-.1.9 0 1.5.3.3 0 .5.3.7.7zm-4.5 32.6c.6 0 1.1.2 1.6.8 1 2.4 1 4.1 0 5.4-.9.6-1.4.8-1.7.6h-1.3c-1.1-.1-1.5-.8-1.1-2.1-.2-1.1-.2-2.2 0-3.2.5-.9.9-1.2 1.2-1.2.3-.1.8-.2 1.3-.3zm-11.8.2c-.1-.2-.4-.3-.7-.5-.7-.2-1.1-.6-1.1-1-.3-2.1.3-3.4 1.6-4 2.5 0 3.7.5 3.7 1.6.1 4-1.1 5.2-3.5 3.9zm31.9-4h.7c1.9.6 4.2 1.5 7 2.5 5 1.3 8.1 2 9 2.1 2.8.7 2.9 1.7.4 3-2.7 1.2-4.6 2-5.6 2.2-2.5.2-4.7-.4-6.8-1.8-1.1-.3-2.1-.7-3-1.2-1.3-.7-3.3-1.8-6-3.3-2.3-1.1-2.4-2 0-2.8.8-.4 2.3-.6 4.3-.7zm-9.6 14.3c-1.8-1.1-2.9-2.4-3.2-3.8.2-.2.8-.6 1.6-1.4.4-.3.7-.4 1.2-.4 1.3.4 3.5 1.2 6.5 2.6 3.9.6 6.2 1.3 7.2 2.2-.1 1.1-1.9 2.1-5.5 2.8-2.3.5-3.7.5-4.4.3-.6-.2-1.8-1-3.4-2.3zM265 613.7h1.5c.2 0 .4 0 .6.1 1.5 1.7 1.3 3.2-.3 4.5-1.4.4-2.3 0-2.9-1.1-1-.5-1.7-.8-2.2-1 0-.4.2-.7.5-.9.6-.8 1.6-1.3 2.8-1.6zm-14.5-2.8c.1-1 .6-1.6 1.6-2 .2-.1.5-.1.8-.1.8.1 1.3.3 1.7.5 2.5.9 4.1 1.8 4.8 3 0 .8-.3 1.3-1 1.4-.3.8-.8 1-1.5.8-1.9-.8-3.1-1.4-3.7-2.1-1.2-.5-2.1-1-2.7-1.5zm5.7 15.1c-3-1-4.7-1.5-4.9-1.5-4.2-.8-8.5-2.4-12.9-4.8-4.3-2.4-7.6-4.1-10-5.2-.7-.3-1.6-.3-2.5 0-.8.1-1.1.5-.8 1.2 1.6 1.3 3.6 2.6 6 3.7.6.7.7 1.1.2 1.4-1 .9-2.7.7-5.3-.3-3.1-2.2-5.8-4.1-8.1-5.7-2.2-1.6-4.7-3.6-7.5-5.9-3.2-1.6-6-3.3-8.4-5-.8-2.1-.3-4 1.7-5.7.1-.1.2-.3.5-.3 2 .8 5 2.7 9 5.8 3.9 3 8.5 5.9 13.7 8.6 1.9.8 3.8 1.1 5.7 1 1.6-.5 3.1-.7 4.5-.6 6.8 2.3 11.4 4.3 13.7 5.9 5.8 3.1 11.7 6.6 17.8 10.6 4.3 1.8 8.5 3.4 12.4 4.5 2.9 2.3 5.4 4.5 7.5 6.6 3.9 2 7.4 3.1 10.7 3.4 3.2.3 5.3.9 6.1 1.8-.1 1.2-1.2 2.5-3.5 4-1.2.3-2.2 0-3-.9-2.9-1.3-6.9-3.4-12-6.1-.4-.3-2.6-1.8-6.5-4.3s-8.4-5.2-13.5-7.8c-3.9-1.9-7.5-3.4-10.6-4.4zm22.7-1.5c-.7.5-1.7.6-3.2.2-2.1-1.3-3.3-2.7-3.5-4.4-.1-.8.3-1.5 1.2-1.9h1c1.7-.1 2.7.1 3.4.3 1.3 1.5 1.6 3.4 1.1 5.8zm.3 48.4c-1.4-.4-2-.9-1.8-1.6 0-1.9 2.2-2.9 6.7-3 1.3.4 2.6 1.3 3.8 2.9 3 2.4 6.1 4.3 9.5 5.5 1.5 0 2.7.5 3.4 1.3.5 1 .3 1.9-.6 2.5-1.5.1-2.9 0-4.3-.4-3.5-.6-6.6-1.6-9.1-3.2-2.1-1.8-4.7-3.2-7.6-4zm42.9 6.6c-1.2.4-2 .3-2.2-.2-.3-.4.7-1.4 3-3 3.1-2.1 5.2-3.6 6.2-4.3 2-1 4.1-1.7 6.5-2.4 2.2-.6 3.8-1 4.8-1.3h1.1c2.6 0 5.5 1.4 8.6 4 2.2 1.4 3.5 2.2 3.8 2.5.3.5.7 1 1 1.5-.5.8-1.7.4-3.5-1.3-1.3-1-2.5-1.7-3.6-2.1-2.5-1.6-5.5-2.4-9-2.2-2.4.8-4.5 1.9-6.4 3.3-1.8.8-3.9 1.8-6.5 3.1-1.7 1-3 1.8-3.8 2.4zm-13.9 4.5c.5-.5 1.1-.7 1.9-.8.9-.1 1.6.2 2.1.8 2.4 2 4.7 3.6 6.7 4.9 1.5 1 2.9 1.9 4.1 2.6 1.1.8.8 1-1.2.9-1.1-.4-2.9-1.1-5.2-2.4-1.5-.4-2.8-.8-3.8-1.1-.6-.4-1.4-1.2-2.7-2.4-1.4-1.1-2-2-1.9-2.5zm-102.4-55.9c.3.6.4 1.4.3 2.2-.8 1-1.4 1.3-2.1 1-.6-.7-2.3-2-5.1-3.8-2.8-1.8-4.8-3.2-6.1-4.2-2.1-1.6-4-3.1-5.7-4.9-3.4-4.6-5.2-7.1-5.3-7.9.2-.3.9-.6 2.1-.6.9 0 1.7.3 2.5.8 2 1.9 4.2 3.8 6.5 5.6 2 1.2 3.7 2.5 5.1 4 3.4 2.4 6.1 5 7.8 7.8zm349.8-111.3c.2 4.4.2 7.9 0 10.5-1.4 12.8-3.4 20.9-6.1 24.4-1.7 4.2-3.1 5.8-4.1 5-.3-.4 0-1.8.7-4.1.8-2.4 1.5-5 2.3-7.9 2.2-8.9 3.1-18.3 2.6-28.1-.4-4-.7-7.6-1-10.8-.1-2.5-.2-5-.4-7.4-.1-2.4.1-3.6.5-3.7.5-.1 1.8 3.1 3.8 9.7 1 3.9 1.6 8.1 1.7 12.4zm-36.9 37.9c-1.9-.9-4.6-1.8-7.8-2.8-2.3-.5-6.3-1.1-12-1.7-2.8-.1-4.8-.3-6-.5-.8-1.3-.8-2.4 0-3.5 1.2-1.4 2.9-2 5.2-2.2.5-.1 1-.1 1.5-.1 3.8.2 7.5 1.5 11.3 4.1 3.7 2.5 7.4 4.4 11 5.7.6.3.5.7-.5 1.2-.5.3-1.4.2-2.7-.2zm-33 8.6c.2 0 .4 0 .5.2.8 1.8.6 3.8-.7 6.2-.4.4-1.4.4-2.9 0-1.4.1-2-.8-2-2.8-.7-2.2.3-3.2 3.2-3.3.7-.2 1.3-.3 1.9-.3zm15.2.2c.8.2 1.3 1.1 1.5 2.7.2 1.5.2 2.4.2 2.6.6.6 1.6 1.5 3 2.6 1.9 2.4 4.3 1.9 7-1.7 2.6-2.8 4.1-3.9 4.6-3.3.7 1.9.6 3.5-.3 5-2.4 2.3-5.3 3.3-8.8 3.1-.6-.2-1.2-.4-1.8-.8-4.4-.5-7.1-1.1-8.1-1.7-.5-.9-.5-2.1 0-3.3-.1-1.9.1-3.4.4-4.6.5-.6.8-.8 1.3-.8.4 0 .7.1 1 .2zm13.2 17.8c.4 0 .9.1 1.4.4.9 1 1.7 2.1 2.7 3.2 1.9.5 3.4.6 4.5.2.2-.1.3-.2.3-.2 2.2-1.2 3.8-1.8 5-1.8.1.2-.4.8-1.5 1.8-.3.3-.5.5-.9.8-1.7 1.4-3.5 2.7-5.1 4.1-1 1-1.6 1.7-2.1 2.1-.9 0-2.3-.2-4-.8-.8.3-1.2.4-1.4.3-.5-1-1-2.4-1.8-4.1-.6-.4-1.1-.8-1.4-1.2 0-.4.1-.8.3-1.2.1-.8.5-1.5 1.1-2 .6-.7 1.5-1.3 2.9-1.6zm35.7 3.6c3.7-3.3 7.2-6.5 10.4-9.6 3.9-3.8 8.2-7.3 12.8-10.6 2-1.1 5-2.5 9.1-4.1 4-1.7 7.3-2.4 9.5-2.5 2.3.3 4.4.7 6.4 1.2 1.1.1 1.9.3 2.5.4l3.6 1.1c2.3.3 4.6.6 7 1 2.2.8 3.9 1.8 5 2.9 1.7 1.6 3 3.5 4.1 5.7 3.2 4.7 4.7 9.5 4.7 14.5-.1 3.8-1 7.5-2.9 11.4-2.5 4.3-5.6 8-9.4 10.9-3.8 3-7.5 5.4-10.9 7-6.9 3.5-12.6 5.8-17 7.3-4.4 1.3-8.7 2-12.8 2h-9.5c-5.1-.2-9.9-.3-14.6-.5-4.8-.2-7.3-.5-7.7-1 .1-1.6 2.3-3.7 6.4-6.3 4.3-2.7 8.9-5.7 14-9.1.8-.7 3.6-2.9 8.5-6.8s10.8-8.2 17.6-13c.9-.6 1.9-1.2 2.9-1.9 4.7-3.2 9.4-6.1 13.8-8.8 2.1-1.4 4.3-3 6.7-5.2 1.8-1 2.9-2.1 3.5-3.5-.1-.8-2-2.4-5.5-4.7-1.8-.9-3.6-1.5-5.4-1.9-1.7-.4-2.7-.6-3-.6-1 .1-2.8.1-5.4.1-.6.3-1.2 1.4-1.6 3.2-.3.6-1.6 1.7-4.1 3.3-4 1.8-8.9 4-14.5 6.8-.8.4-3 1.8-6.4 4.1-3.5 2.1-7.4 4.6-11.7 7.2h-.1c-13.2 7.8-20.2 11.4-21.2 10.9-.6-.1-.1-.8 1.3-2 3.1-1.5 6.8-3.6 11.1-6.5.9-.9 1.9-1.6 2.8-2.4zm-118.9-91.1c2.5-3.8 4.1-5.7 5-5.9.6 0 .1 1.7-1.5 5.3-1.3 2-2.9 4.9-5 8.5-1.8 4.4-4.3 9.8-7.5 16.5-2.2 3.7-4.6 7.9-7.3 12.5-1.6 3-3.4 5.4-5.3 7-2 1.7-3.2 2.6-3.7 2.7-1.3-.2-1.7-1.9-1-5.1-.8-2.2-1.2-4.3-1.4-6.1-.1-1 1.1-1.6 3.7-2.1 1.3-.1 2.2.2 2.6.8.4.7.7.9.9.9 1.2-.7 2.5-1.9 3.9-3.5 1.3-1.5 2.1-2.5 2.3-2.7 2.2-2.9 4.4-6.7 6.8-11.5 2.6-6.4 5.2-12.2 7.5-17.3zM369.4 529v-5.3c.2-2.3 1-3.6 2.8-4.1h.9c1.7.1 4.2.2 7.3.4 3.2.2 5.5.9 6.7 2.4.5 1.2.5 3.5 0 6.9-.5 3.4-1 7.3-1.2 11.5-.3 5.3-.3 10-.2 14.5.1 4.4-.1 7.4-.5 9-.9 3.3-4.9 7.1-12 11.6-3.1 2.4-5.8 4.4-8.3 6.3-2.5 1.8-3.9 2.5-4.2 2.1-.9-3.6-1-6.7-.1-9.4.8-2.6 1.8-5.7 2.9-9.1.9-4.2 1.9-10.2 3.1-18 .4-2.2.9-5.1 1.5-8.7.5-3.5 1-6.9 1.3-10.1zm-3-8.4c.1 1.1 0 3.9-.5 8.6-1 5.2-2.3 11.4-3.8 18.5-1.1 8.2-2 16-2.9 23-1.3 9.4-2.8 15.4-4.5 18-2.1 2.2-3.1 1.6-3-2 1.1-4.1 2.4-9.4 3.9-15.8.3-4.3.6-8.4.8-12.3.6-5.4 1.2-9.1 1.8-10.9.2-.6.9-3.3 2.3-8s2.6-9.1 3.6-13.4c.3-1.8.3-3-.2-3.5-.4-.4-.5-1.1-.2-2.2.5-1.4 1.1-2 1.7-1.8.5.2.8.8 1 1.8zm32.2 8.7c.3-1.3.5-2 .7-2.1.1 0 .2.1.3.3.5 1.9 1 3.8 1.3 5.6 0 2.6-.1 5.6-.6 8.8.3 1.8.3 4.1-.2 7-1 2.2-1.5 2.4-1.5.7v-3.3c.1-1.5-.1-2.7-.5-3.9-.2-3.6-.2-7.1 0-10.5.1-.3.3-1.2.5-2.6zm-7.7-4c.3-1.2.7-1.7 1.2-1.6.3 0 .5.4.7.8.6 3.4 1 6.8 1.1 10.2 0 3.4.1 6.9.2 10.5.3 2.7.1 5.4-.5 8.1-.4 2.1-.6 3.8-.7 5-1.7 2.4-2.7 1.1-2.9-4-.3-2.2-.4-4.7-.4-7.4.2-4.5.5-9 .9-13.6.1-3.4.3-6 .4-8zm-14.4 57.8c1.1.1 1.1.5-.3 1.2-.4.4-1.3 2.1-2.3 5-1.2 2.9-2.7 5.9-4.7 9.1-3.8 5.5-7.3 8.2-10.4 7.9-1.4-.9-2-2.2-1.9-4 .1-1.2.5-2.7 1.3-4.4.9-2.4 2.2-4.7 4-6.9 3.4-3.1 5.7-4.8 7.2-5.2.7-.6 2.3-1.5 4.8-2.5.9-.3 1.7-.4 2.3-.2zm18.7 4.8c1.4-.1 1.8.8 1.2 2.7-.6 2.3-1 3.6-1.1 3.7-.2.2-1.4.4-4 .4-1.1.6-1.4-.3-.9-2.8-.3-1.3.2-2.5 1.4-3.3.9-.3 2.1-.5 3.4-.7zm62.7-44.3c3.6-.7 7.3-1.1 11-1.3 1.1 0 2.1 0 3 .1 3.7.3 5.7 1.1 6 2.6.2 1.4-2.8 3.4-9 5.8-5.5 1.3-11.3 2.5-17.6 3.5-5.5 1.7-11.1 3.3-16.5 4.9-6.6 2.1-12.2 3.8-16.8 5.2-4.7 1.5-7.4 2.3-7.9 2.5-4.1.3-4.5-1.4-1.3-5.1 1.8-1.3 4.1-2.6 7.2-3.7 3-1.2 5.9-2.3 8.7-3.4 3.7-1.8 6.3-3 7.9-3.8 4-1.4 9.8-3.3 17.3-5.6 1.5-.5 4.2-1 8-1.7zM422 578.9c.4 0 .8.2 1.2.4.6-.1.7 1.2.4 4 .2 1-.7 1.4-2.5 1.4-.7.2-1.2.2-1.7-.2.1-.6.2-1.2.5-1.9-.1-.9-.2-1.6-.2-2.3.4-.9 1.2-1.4 2.3-1.4zm-13.1 6.4c.5 1 .4 2-.3 2.8-1.5 1.2-2.7 1.7-3.7 1.5-.8-2.5-.9-4.1-.5-4.9.4-.6 1.1-.9 2.1-.9.9.1 1.7.6 2.4 1.5zm28.9-9c.4 1 .3 2.4-.4 4.2-1.8 1.8-3.1 1.3-4-1.5-.3-1.3-.4-2.3-.3-3.1.3-.3.7-.5 1.1-.5.4.1.9.2 1.4.2 1.2-.2 2 .1 2.2.7zm-6.2 13.5c1-.5 2-.7 3-.9.5 0 .7.5.6 1.5-.4.8-1.8 2.9-4.3 6.3-1.5 3.1-2.8 6.5-4.1 10.2-1.4 3.8-2.2 6.4-2.5 7.8-.4 2.1-1.4 5-2.7 8.6-1.4 3.7-2.9 6.7-4.5 9-3.5 3.6-5.5 5-6.2 4.2-.7 0-.6-1.5.2-4.6.9-3 1.9-6.4 3.1-10.2 1.3-4.4 3.5-10.3 6.7-17.8 3.2-7.4 6.8-12.1 10.7-14.1zm38.1-25.1c.1.1.2.1.3.2.4.7.4 1.5.3 2.5.1 1.2-.1 2.4-.4 3.7-.7.5-1.6.6-2.8.5-.9.6-1.9.8-2.7.6-1.6-1.4-2-3-.9-4.9.9-.7 1.9-1.2 3.2-1.4 1.4-.7 2.4-1.1 3-1.2zm-16.5 4.5c.6.5.7 1.8.4 3.7-.4 1.9-1.1 2.9-2.2 3.2-2.2 0-3.3-.1-3.5-.4v-1.2c-.7-1.7-.5-3 .6-3.9 1.1-.8 1.9-1.1 2.4-1.2.3 0 1-.1 2-.2h.3zm-3.3 16.6c.5.4 0 2.9-1.8 7.4-1.7 4.6-3.7 9.7-6.3 15.2-2.2 4.6-4 8.5-5.7 11.8-1.8 3.1-2.7 5-3 5.3-1.5 3-2.5 6-2.8 9.1.6 2.1 3.6 2.1 8.9 0 5.4-2.1 9.5-3.4 12.2-4.1.7-.5 4.2-1.2 10.5-2.1 4.7-.2 9.2.3 13.5 1.3 3.7.5 6.1 1.5 7.4 3.1.1.3-.2.7-.9 1-2.2.2-5.8.5-10.8.9-5 .4-10.4 1.2-16.2 2.4-6.3 1.6-12 3.2-17 4.9-5 1.8-8.2 3-9.5 3.5-5.9 2-11.3 4.1-16.3 6.4-7.9 3.8-13.3 6.6-16.5 8.4-3 1.7-4.7 2.5-5 2.2-.1-.2-1.8-1.2-5.2-3-2.5-1.2-3.6-2.5-3-4 1.2-1.3 4.5-3.2 9.7-5.8 5.3-2.5 10.8-5 16.7-7.4 9-2.8 13.9-4 14.8-3.6 1.1-.4 2.6-2.5 4.4-6 .4-3.2 1.2-6.8 2.6-10.9 1.5-3.5 3-7.1 4.4-11.1 2.5-5.1 4.9-9.9 7.4-14.1 2.4-7 5-10.6 7.5-10.8zm9.9 4.6c.7-.1 1.2.1 1.4.8.7 1.7.7 3.4-.3 4.8-1.9 1.9-3.3 2.8-4.1 2.7-2 .7-3.4.7-4.2-.2-.3-2.4.3-4.4 1.6-5.9.6-1.7 2-2.4 4.3-2.4.4.1.8.1 1.3.2zm-1.6 13.2c1.7.1 2.8.8 3.4 2.1.6 1.1.5 2.8-.4 5.1-.4.4-1.7.5-3.8.4-2 .1-4 .3-5.8.4-1.9.1-3.1.1-3.7.1-4.1-.9-2.5-3.3 4.9-7 1.9-.9 3.8-1.3 5.4-1.1zm.6 11.7c.4-.1.9-.1 1.3 0 2.6.2 4.3 1 5.3 2.2 2 1.5 2 3.1.2 4.8-2 1-4.9 1.7-8.5 2-4.3 1.2-8.5 2.2-12.6 2.7-4.4.3-6.1-.5-4.7-2.3 1.3-1.9 3.6-4 7-6.4 1.9-1.3 4.1-2.1 6.5-2.5 2.5-.3 4.3-.5 5.5-.5zm-2.6 26.8c4.2-.9 9.4-1.9 15.3-2.9 6.1-1.1 11.3-1.7 15.6-1.9h2.5c4.3-.1 6.6 2.5 7.1 8-.3.4-4.2 1-11.6 1.6-7.5.6-15.7 1.8-24.7 3.5-6.8 1.6-13 3.3-18.5 5.1-5.5 1.9-9 3.1-10.7 3.8-2.6 1-5.8 2.4-9.8 4.4-3.8 2.1-7.5 3.8-10.9 5.1-1.9 1.1-3.6 1.7-4.9 1.9-1.7-.5-3.5-1.4-5.5-2.7-2-1.2-2.7-2.5-2-3.8 1.5-1.9 4-3.4 7.4-4.7 3.3-1.2 5.6-2.1 7-2.7 5.9-3 12.6-5.8 20.3-8.3 7.6-2.6 15.5-4.7 23.4-6.4zm-42.8-44.7c.1 0 .2.1.2.2.7 2.5.4 5.9-.8 10.1-1.2 4.1-2.5 7.6-3.7 10.5-2.7 6.8-5.9 13.3-9.6 19.7-.9 3-2.2 4.4-4.1 4.4-.8-.3-.8-1.7.2-4.1.8-2.5 2-5.2 3.2-8.1 1.8-4.8 2.8-7.9 3-9.4 1.8-7.2 4-12.8 6.6-17 2.5-4.1 4.2-6.2 5-6.3zm.5 78.6c-1.3-.8-2.6-1.7-3.9-2.4-1.3-.6-.9-1.3 1.1-2.1 1.5-.5 5.1-1.8 10.7-3.9 5.5-2.1 11.7-4.3 18.6-6.4 7.4-1.9 14.1-3.5 20.2-5.2 7.4-1.8 14.5-2.9 21.3-3.2 5.3-.6 9.2-.9 11.9-.9 4.3-.2 5.6 2.3 3.6 7.4.2 1.2-1.8 2.2-6.1 3-3.2-.3-7.2-.5-12.1-.6-14.8 2-29 5.6-42.8 11.2-8.3 3.4-13.3 5.5-15 6.1-2.8.4-5.2-.6-7.5-3zm-.5 10.4c-1-.4-1.6-.8-1.8-1.4-1.8-.1-3.2-.6-4.4-1.5-1.1-.9-2.4-1.4-3.9-1.5-.2-.7-.9-1.5-2.2-2-1.3-.6-2.1-1.7-2.3-3.3-.9-.2-1.7-.9-2.2-2.2s-1.5-2.2-3-2.3c.3-1.2 1.3-1.7 3-1.5.3 1.6 1.4 3.1 3.3 4.5 2 1.3 3.1 2.3 3.4 3h1.6c.1.7.8 1.3 2 2 1.3.7 2.4 1.1 3.2 1.1.1.7.8 1.2 2.1 1.9s2.4 1.1 3.1 1.1c.2.8 1.1 1.6 2.6 2.1 1.6.6 2.5 1.3 2.7 2.5.8 0 .8.7 0 2.2-1.2-.1-2.1-.6-2.7-1.6-.5-.8-1.3-1.4-2.6-1.5-.2-.8-.7-1.4-1.9-1.6zm13.2-4.6c1.2-.8 2.8-1.4 4.8-2.1 6.6-3.2 13.3-5.7 20-7.5 1.6-.7 6.2-1.7 13.7-3.2 5-.7 9.8-1.3 14-1.6 4.3-.4 6.7-.5 7-.5 2.1-.1 3.8-.2 5.1-.1 3.6-.5 4.6 1.4 2.9 5.4-.2.1-1.8.2-5 .3-3 0-6.6.2-10.6.6-6.6.9-10.9 1.8-13 2.6-8.8 2-16.8 4.6-24.1 7.4-6.2 2.8-10.3 4.1-12.5 4-3.1-1-3.8-2.7-2.3-5.3zm27.9 1.6c2.6-1.4 6.1-2.5 10.3-3.2 4.4-.7 9-.9 13.6-.9 4.7-.7 7.8-1.2 9.5-1.6 1.2-.2 1.7.8 1.3 3.1.4 1.7-1.5 2.8-5.6 3.7-5.2.8-10.9 1.6-17 2.5-4.9 1.5-9 3-12 4.3-2 .7-3.2 1.2-4 1.7-2.4.6-2.2-.5.7-3.5.6-2 1.7-4 3.2-6.1zm25.6 6.1c2.8 0 4.1.8 4.3 2.2.2 1.6-1.8 3.1-6.1 4.8-4.1.9-9.2 2-15.5 3.1-2.4.9-5 1.5-7.7 1.9-2.7.6-4.5-.5-5.5-3.1.2-1.1 2.3-1.9 6.4-2.6 1.4-.4 4.7-1.5 10-3.3 5.2-1.6 9.9-2.6 14.1-3zm-93.3-78.1c1-.4 3.1-1.3 6.3-2.7 3.3-1.4 5.6-2.2 7-2.4h.2c.8 1.3.6 3-.9 5.1-1.9 2.8-4.5 5-8 6.8-3.3 1.7-6.2 3.1-8.4 4-1.7 1.1-6.4 3.5-14.2 7-3.9 1.5-7.2 2.8-10.2 3.6-3.1 1-4.7 1.5-5 1.5-1.8.3-4.3.2-7.5-.2-1.8-1.3-2.5-2.4-2-3.1-.7-.2 0-.3 2.1-.6 2.3-.2 4.4-.7 6.4-1.2 7.3-2.7 13.2-5.5 17.6-8.5.8-.5 2.9-1.9 6.2-4 3.5-2 6.9-3.7 10.4-5.3zm13.8-11.1c.1.4-1.2 1.2-3.9 2.5-3.4 2.3-7.7 4.6-12.9 7.1-3.6 1.6-6.7 2.9-9.4 3.8-2.6 1.1-4 1.6-4.2 1.7-1.1.1-1.8.1-2.3.1-.8-.8 1.7-2.5 7.5-5.2 5.3-2.9 10.7-5.5 16.2-7.9 4.4-1.4 7.3-2.1 8.6-2.1h.4zm-23.7 37.1c-2.8 1.3-4.9 2.3-6.1 2.9-5.1 2-8 3-8.9 3.1-1.5.8-2.8.8-3.7 0-1.6-1.9-2.4-3.2-2.2-4.1 2.8-2.3 6.9-4.5 12.5-6.5 4.3-2.1 8.4-3.8 12.3-5.4 1-.1 2.7-.7 5.3-1.4 2.8-1.3 5-2 6.5-2.2h.3c.5.9.5 2.4-.1 4.5-.3.5-1.4 1.4-3.2 2.4-1.9 1-3.2 1.7-4.2 2.1-2.8 1.7-5.6 3.2-8.5 4.6zm12.2-.1c.8.8.9 2.4.1 5 .4 1 .4 2.1 0 3.2-1.3 1-3.1 2-5.4 2.8-2 1.5-4.2 2.7-6.4 3.5-4.2.7-7.3-.7-9.5-4.3 0-1 1.9-2.5 6-4.5 5.2-3.2 10.2-5.1 15.2-5.7zM347.8 605c.6-3.1 1.6-4.4 2.9-4.3.9 0 1.6.6 2.1 1.8.1.8-.1 2.2-.6 4.2-.6 2.1-1 3.5-1.3 4.1-1 1.8-2 2.5-2.9 2.3-.4-.7-.6-1.8-.6-3.5s.1-3.2.4-4.6zm-18.3 8.8c1.9-1.2 3-2 3.6-2.2 1.2-.9 2.3-1.3 3.4-1.5 1.7-.4 1.9 2.2.2 8.1-.6 1.2-1.8 1.6-3.7 1.1-2.8-.3-4.8-1.2-6.1-2.6-.1-.6.7-1.6 2.6-2.9zm8.4 26.9c1.2-1.7 2.6-2.7 4.1-3 .4 0 .8.1 1.2.3 2.9 2 5.6 4.3 8.2 7 .7.4 3.1 2 7.5 4.7 4.2 2.8 8.4 5.5 12.5 8.3 4 2.7 6 4.2 5.8 4.5-.3.4-.7.7-1.2.8-2.6-1.3-6.6-4.1-11.9-8.7-5.1-3.4-9.9-6.6-14.3-9.3-3.1-2.3-5.4-3.5-6.7-3.6-1.5.2-3 .7-4.3 1.5-1.4.8-2.2 1.1-2.4 1.1-.2-.7.3-1.9 1.5-3.6zm232.4 45.2c1.9.7 3.7 1.4 5.2 2.1.2.9.8 1.6 2 2.4 1 .7 1.7 1.7 1.9 3 .7.1 1.3.8 1.7 2 .4 1.2.5 2.3.5 3.2-.6-.7-1.2-1.4-2.2-2.1-.2-.8-.6-1.4-1.5-2-.9-.5-1.4-1.4-1.5-2.6-1.3-.2-2.4-.9-3.1-1.9-.8-1.2-1.5-1.9-2.3-2-.1-.9-.8-1.5-1.8-2-1.1-.4-1.7-1-1.9-1.7-2.1-.5-3.8-1-5.3-1.6-.2-1.1-1.5-1.7-3.7-1.9-2.3-.3-4-.3-5.3-.3-.1.6-.6 1-1.5 1.1s-1.4.5-1.5 1.1c-1.8.8-3 1.6-3.7 2.3-.2 1-.7 1.9-1.5 2.6-.9.8-1.4.7-1.6-.3.7-.2 1.1-.8 1.3-1.9.3-1.1.9-1.8 1.8-1.9.7-2 1.5-4 2.2-6h9c.2.9.7 1.3 1.5 1.5.1.7.8 1.1 1.9 1.2 1.1.1 1.7.4 1.9 1.1 1.5.5 3 1 4.5 1.4.2.8.7 1.4 1.6 1.8.8.5 1.3.9 1.4 1.4zm-36.8-52.1c.4.5.7 1.2 1.1 2 1.1.5 2.2 1.2 3.3 2.2 1 1.3 1.3 2.6 1.1 3.7-.2 1-1.2 1.2-3.2.6-2.8-.8-5.3-2-7.3-3.6-2.5-3-2.5-4.7-.2-5.2h2.7c1 0 1.8 0 2.5.3zm-9.4 12.8c-.3-1.1 0-1.9 1-2.4.4-.2.8-.2 1.1-.2 3.1.3 5.9 2.2 8.7 5.3 2.5 3.1 3.6 6.4 3.1 10-.6.1-1.4 0-2.4-.3-.9-.8-2.1-2-3.4-3.5-1.7-1-3.3-2-5.1-3.2-2-2-3-4-3-5.7zm-2.3 12.2c.7-1.4 1.4-2.3 2.2-2.5 2.3.5 4 1.3 5 2.2 1.8 1.8 3.4 3.5 4.9 5.3 2.6 3.8 2.7 6.9.1 9.2-1.1.2-2.8-.4-4.8-1.8-5.7-3.9-8.6-6.9-8.6-8.9 0-.8.4-2 1.2-3.5zm.4 27.1c-1.7-.9-2.7-2-2.8-3.4-1.4-1-2-2.4-1.9-4 .3-1.8.8-3.3 1.5-4.8.1-.9.5-1.5 1-2 .6-.4 1.2-.6 1.9-.5 1.2 0 2.3.3 3.4 1.1 2.6.7 4.5 3.2 5.7 7.9-.1 1.9-.8 3.2-1.8 3.8-.8 1.5-1.7 2.7-2.6 3.6-1.7-.3-3.2-.9-4.4-1.7zm-5.7 0c2.1.2 3.9 1.6 5.4 4.2 1.6 2.7 1.2 4.9-1.1 6.7-1.2.9-2.8 1.5-5 1.5-1.3-.9-1.9-2.3-1.7-4-.2-5.6.6-8.4 2.4-8.4z"/><g fill="#FFF"><path d="M347 350.9c-8 7.3-13.3 16.8-15.9 28.7-3.1 18.3-.1 35.8 9 52.3 9 16.5 21.5 29.2 37.4 38.3 10.9 5.9 21.7 8.4 32.7 7.8s20.8-4.3 29.3-10.9c3.2-2.5 6.1-5.5 8.6-8.8 6.5-23.7 7.8-48.4 4.1-73.7-3.2-7.4-7.4-14.3-12.6-20.7-8.6-10.4-19.1-18.3-31.7-23.4-11-4.2-21.9-5.4-32.7-3.4-10.8 1.9-20.2 6.5-28.2 13.8zm-9 30.4c2.6-10.4 7.4-18.9 14.6-25.3 7.2-6.4 15.5-10.5 25.2-12.2 9.6-1.7 19.3-.7 29.1 3.1 11 4.6 20.3 11.5 27.8 20.7s12.7 19.5 15.5 31c2.9 11.6 3 23.1.2 34.7-3 11.1-8.3 19.6-16 25.7-7.6 6.1-16.4 9.6-26.3 10.3-10 .7-19.8-1.6-29.6-6.7-14.4-8-25.4-19.5-33.4-34.3-8-14.9-10.3-30.6-7.1-47z"/><path d="M396.4 361.3c-.3.4-.4.6-.2.3 10.2 3.6 18.5 8.2 25.2 13.8 5.8 5 9.7 11.4 11.7 19 1 4 1.5 7.5 1.7 10.5.1 3-.3 6.2-1.2 9.5-.9 4-2.8 7.2-5.9 9.7-3.1 2.5-7.3 3.6-12.9 3.3-.1.1-.1.2-.2.3 6 1.2 11 1.1 15.1-.1 4.1-1.1 6.9-4.9 8.7-11.2.8-2.7 1.1-6 1-10.1-.1-4.1-.9-8.2-2.5-12.4-1.7-4.6-3.7-8.3-5.9-11.2-2.2-2.8-5.6-6-9.8-9.3-6.8-4.8-15-8.8-24.8-12.1z"/><path d="M377.8 357.9c-.2-.1-.4-.1-.6-.2-1.4-.2-2.8-.4-4.3-.6l-.1.6c1.3.6 2.7 1 4.1 1.6.2.1.3.2.5.3-3.8 19-8.2 37.8-13 56.5-1.8 2.2-2.9 4.8-3.5 7.8-1.1 5-1.8 11.5-2 19.2 0 .2.2.3.7.3.8-4.5 1.6-8.6 2.5-12.2 1-3.6 2.9-6.5 5.8-8.6 2.2-1.5 4.9-2.6 8-3.2 3.2-.8 6.2-1.4 8.9-2 6.1-1.4 11.5-4.1 16.4-8 2.7-2 4.7-4.7 6.2-8.1 1.5-3.5 1.4-7.9-.5-13.3-2.2-5.7-5.3-10.9-9.5-15.6-2.3-2.7-5.2-5.5-8.3-8.4-3.2-2.9-5-4.6-5.3-4.8-.4-.1-.8-.3-1.2-.3.3-1.7.6-3.3 1-5-1.6-.6-3.2-1.2-4.7-1.8-.3 1.9-.8 3.8-1.1 5.8zm12.9 11.4c3.2 3.6 5.3 8.1 6.5 13.6 1 4.8 1.1 9 .2 12.5-.8 3.5-1.8 6-3 7.3-3.2 3.2-7.1 5-11.8 5.4-3.9.3-7.8 1.3-11.8 3.2 4.1-16.3 7.9-32.7 11.1-49.2 3.7 2.3 6.6 4.6 8.8 7.2zm33.1 25.4c-1.1-2.2-2.5-4.5-4.2-7 .5 1.9.7 3.7.7 5.4-.9-.6-1.9-1.2-2.9-1.8 1 2.3 1.7 4.6 2.1 6.8-1.4-1.5-2.9-3.2-4.6-4.8v2c-1.3-.5-2.5-1-3.8-1.4 1.1 1.9 2 3.8 2.9 5.6l-2.4.3c1.5 1.4 2.8 2.8 4 4.1-1.3.8-2.7 1.5-4.1 2.2 3.4.8 6.4 1.8 8.8 3-.9 1.9-2.2 3.6-3.7 5.3.5.2 1 .3 1.5.5 1.5-1.6 2.7-3.3 3.6-5.1 2.5.8 4.7 1.6 6.5 2.4-.1-1.1-.3-2.4-.7-3.6 1.3-.5 2.4-1 3.6-1.3-.4-.6-.8-1-1.2-1.5.9-1.1 1.7-2.1 2.5-3.1-.9-.4-1.8-.8-2.6-1.1-.2-.7-.2-1.3-.4-2-1 .4-2.2.8-3.3 1.3.3-1.8.3-3.8 0-5.7-.7-.1-1.5-.3-2.3-.5z"/></g></svg>