<?xml version="1.0" encoding="iso-8859-1"?>
<!-- Generator: Adobe Illustrator 16.0.0, SVG Export Plug-In . SVG Version: 6.00 Build 0)  -->
<!DOCTYPE svg PUBLIC "-//W3C//DTD SVG 1.1//EN" "http://www.w3.org/Graphics/SVG/1.1/DTD/svg11.dtd">
<svg version="1.1" id="Capa_1" xmlns="http://www.w3.org/2000/svg" xmlns:xlink="http://www.w3.org/1999/xlink" x="0px" y="0px"
	 width="151.852px" height="151.852px" viewBox="0 0 151.852 151.852" style="enable-background:new 0 0 151.852 151.852;"
	 xml:space="preserve">
<g>
	<g>
		<path d="M124.261,70.052c-2.144-1.866-9.31-3.312-16.781-4.372l0.024-0.168V13.073c0-7.207-5.62-13.073-12.55-13.073
			c-6.924,0-12.556,5.86-12.556,13.073v28.202c-1.988-1.328-4.354-2.119-6.89-2.119c-3.766,0-7.122,1.726-9.454,4.42
			c-2.332-2.694-5.687-4.42-9.459-4.42c-3.766,0-7.121,1.726-9.454,4.42c-2.332-2.694-5.684-4.42-9.456-4.42
			c-6.774,0-12.279,5.504-12.635,12.382l-0.067,0.344v0.356v12.793v7.401v26.491v7.746c0,26.609,20.944,45.182,50.942,45.182
			c29.995,0,50.941-18.572,50.941-45.182V75.246C126.879,73.225,125.315,70.944,124.261,70.052z M94.96,6.229
			c3.483,0,6.32,3.06,6.32,6.838v51.822c-2.643-0.305-5.176-0.56-7.331-0.767c-2.034-0.21-3.738-0.162-5.31,0V13.067
			C88.64,9.289,91.477,6.229,94.96,6.229z M75.515,45.392c3.565,0,6.476,3.068,6.476,6.853v12.75l0.256,1.221
			c-2.238,1.511-3.535,3.544-4.244,5.496c-0.887,2.411-0.947,4.932-0.351,7.282c-0.566,0.167-1.147,0.28-1.757,0.28
			c-3.479,0-6.281-2.938-6.424-6.579l0.027-0.269v-20.7l-0.188-0.917C69.953,47.735,72.421,45.392,75.515,45.392z M56.602,45.392
			c3.254,0,5.849,2.605,6.299,5.915l-0.094,0.926v21.062l0.149,0.736c-0.704,2.978-3.13,5.231-6.159,5.231
			c-3.444,0-6.205-2.874-6.4-6.46l0.009-0.03v-0.362V52.232v-0.505l-0.088-0.438C50.765,47.985,53.353,45.392,56.602,45.392z
			 M37.698,45.392c3.254,0,5.849,2.605,6.296,5.915L43.9,52.232v21.586c-0.627,3.081-3.096,5.444-6.196,5.444
			c-3.568,0-6.473-3.069-6.473-6.853v-7.396V52.227C31.231,48.46,34.13,45.392,37.698,45.392z M120.645,106.657
			c0,22.932-18.378,38.952-44.707,38.952c-26.327,0-44.707-16.021-44.707-38.952v-7.745V83.616c1.903,1.175,4.104,1.894,6.473,1.894
			c3.821,0,7.212-1.784,9.545-4.546c2.332,2.749,5.724,4.546,9.554,4.546c3.821,0,7.212-1.784,9.545-4.546
			c2.332,2.749,5.724,4.546,9.554,4.546c1.638,0,3.242-0.408,4.737-1.047c1.449,1.619,3.294,2.977,5.541,3.781l19.899,5.504
			c1.656,0.438,3.373-0.523,3.836-2.186c0.45-1.656-0.518-3.373-2.18-3.83l-19.656-5.42c-3.556-1.312-5.449-5.096-4.226-8.458
			c0.475-1.315,1.571-4.439,9.456-3.516c11.296,1.047,24.813,3.047,26.829,4.396l0.506,0.511V106.657L120.645,106.657z"/>
	</g>
</g>
<g>
</g>
<g>
</g>
<g>
</g>
<g>
</g>
<g>
</g>
<g>
</g>
<g>
</g>
<g>
</g>
<g>
</g>
<g>
</g>
<g>
</g>
<g>
</g>
<g>
</g>
<g>
</g>
<g>
</g>
</svg>
