<?xml version="1.0" encoding="iso-8859-1"?>
<!-- Generator: Adobe Illustrator 16.0.0, SVG Export Plug-In . SVG Version: 6.00 Build 0)  -->
<!DOCTYPE svg PUBLIC "-//W3C//DTD SVG 1.1//EN" "http://www.w3.org/Graphics/SVG/1.1/DTD/svg11.dtd">
<svg version="1.1" id="Capa_1" xmlns="http://www.w3.org/2000/svg" xmlns:xlink="http://www.w3.org/1999/xlink" x="0px" y="0px"
	 width="70.074px" height="70.074px" viewBox="0 0 70.074 70.074" style="enable-background:new 0 0 70.074 70.074;"
	 xml:space="preserve">
<g>
	<path d="M64.687,22.394c2.432-0.042,4.604-1.854,5.15-4.313c0.048-0.227,0.114-0.452,0.174-0.68l0.063-0.242v-0.693
		c-0.046-0.147-0.089-0.299-0.132-0.45l-0.027-0.109c-0.14-0.488-0.265-0.937-0.447-1.327c-1.07-2.257-2.97-3.36-5.808-3.36
		c-10.27-0.019-20.544-0.027-30.81,0.015c-1.132,0.004-2.352,0.159-3.735,0.473c-3.606,0.818-7.063,2.624-10.882,5.681
		c-6.637,5.318-12.24,12.06-17.128,20.609c-0.4,0.7-0.76,1.421-1.105,2.126l1.778,1.784c2.261-4.448,4.956-8.642,8.016-12.473
		c4.31-5.398,8.351-9.245,12.715-12.111c2.588-1.701,6.114-3.651,10.443-3.658c10.182-0.013,20.357-0.01,30.535,0.009
		c0.734,0,1.448,0.121,2.062,0.343c1.245,0.455,1.952,1.485,1.952,2.826c0,1.397-0.736,2.447-2.03,2.882
		c-0.654,0.223-1.363,0.341-2.044,0.344c-1.231,0.004-14.768,0.04-16.715-0.021l-0.363-0.005c-6.547,0-13.292,5.632-14.428,12.051
		c-0.32,1.812-0.327,3.754-0.332,5.631c-0.002,0.854-0.005,1.684-0.03,2.51l13.92,0.002c1.962,0,3.094,0.773,3.796,2.577
		c0.598,1.552,0.698,3.173,0.297,4.82c-0.623,2.534-1.771,3.433-4.392,3.433c0,0-13.886,0.005-16.028-0.004
		c-3.665,0-6.832,1.161-9.682,3.547c-1.048,0.878-1.826,1.699-2.432,2.555l1.712,1.706c2.906-3.632,6.407-5.399,10.691-5.399
		l0.39,0.005c1.88,0.048,14.557,0.029,16.199,0.029c1.831,0,3.211-0.643,4.338-2.027c1.604-1.96,2.149-4.325,1.725-7.445
		c-0.338-2.51-1.382-4.284-3.185-5.43c-0.98-0.62-1.102-1.435-1.099-2.073c0.014-2.785,0.014-5.571,0.014-8.355v-3.399
		c0-1.915,0.383-2.385,2.278-2.392C50.097,22.394,61.333,22.454,64.687,22.394z M44.882,37.278c-0.433,0.44-1.017,0.486-1.414,0.486
		c-1.143-0.023-7.085-0.014-7.085-0.014c-1.143,0-1.752-0.529-1.82-1.576c-0.366-5.66,3.396-11.251,8.755-13.01
		c0.171-0.054,0.342-0.089,0.572-0.129l1.339-0.264c0,0-0.027,10.493,0,13.008C45.233,36.252,45.315,36.841,44.882,37.278z"/>
</g>
<g>
</g>
<g>
</g>
<g>
</g>
<g>
</g>
<g>
</g>
<g>
</g>
<g>
</g>
<g>
</g>
<g>
</g>
<g>
</g>
<g>
</g>
<g>
</g>
<g>
</g>
<g>
</g>
<g>
</g>
</svg>
